<svg width="36" height="38" viewBox="0 0 36 38" fill="none" xmlns="http://www.w3.org/2000/svg">
<path d="M33.103 12.313H28.485V10.124C28.485 9.869 28.472 9.617 28.454 9.367H28.485C28.2913 6.82128 27.1441 4.44241 25.2725 2.70586C23.401 0.969298 20.9431 0.00296897 18.39 0L18.361 0C15.8079 0.00296897 13.35 0.969298 11.4785 2.70586C9.60695 4.44241 8.4597 6.82128 8.266 9.367H8.297C8.278 9.617 8.266 9.867 8.266 10.124V12.313H3.648C3.25522 12.3123 2.86642 12.3917 2.5053 12.5462C2.14418 12.7007 1.8183 12.9271 1.54753 13.2116C1.27675 13.4961 1.06675 13.8328 0.930328 14.2012C0.793902 14.5695 0.733908 14.9617 0.754002 15.354L1.807 34.574C1.8447 35.315 2.16566 36.0132 2.70352 36.5242C3.24139 37.0353 3.95505 37.3202 4.697 37.32H32.054C32.796 37.3202 33.5096 37.0353 34.0475 36.5242C34.5854 36.0132 34.9063 35.315 34.944 34.574L35.993 15.353C36.0129 14.9611 35.953 14.5693 35.8167 14.2013C35.6805 13.8333 35.4708 13.4968 35.2005 13.2124C34.9302 12.9279 34.6049 12.7014 34.2443 12.5467C33.8837 12.3919 33.4954 12.312 33.103 12.312M19.878 24.912V29.1C19.878 29.2722 19.8441 29.4426 19.7782 29.6017C19.7123 29.7608 19.6158 29.9053 19.494 30.027C19.3723 30.1488 19.2278 30.2453 19.0687 30.3112C18.9096 30.3771 18.7392 30.411 18.567 30.411C18.3948 30.411 18.2244 30.3771 18.0653 30.3112C17.9062 30.2453 17.7617 30.1488 17.64 30.027C17.5182 29.9053 17.4217 29.7608 17.3558 29.6017C17.2899 29.4426 17.256 29.2722 17.256 29.1V24.916C16.723 24.6248 16.3022 24.1644 16.0599 23.6074C15.8177 23.0505 15.7677 22.4287 15.918 21.8403C16.0683 21.2518 16.4103 20.7302 16.8899 20.3576C17.3696 19.9851 17.9597 19.7828 18.567 19.7828C19.1743 19.7828 19.7644 19.9851 20.2441 20.3576C20.7237 20.7302 21.0657 21.2518 21.216 21.8403C21.3663 22.4287 21.3163 23.0505 21.0741 23.6074C20.8318 24.1644 20.411 24.6248 19.878 24.916M24.449 12.316H12.301V10.124C12.301 8.51307 12.9409 6.96813 14.08 5.82903C15.2191 4.68994 16.7641 4.05 18.375 4.05C19.9859 4.05 21.5309 4.68994 22.67 5.82903C23.8091 6.96813 24.449 8.51307 24.449 10.124V12.313V12.316Z" fill="#C1BCBC"/>
</svg>
