<svg width="27" height="38" viewBox="0 0 27 38" fill="none" xmlns="http://www.w3.org/2000/svg">
<path d="M13.507 19.335C15.4189 19.335 17.288 18.768 18.8777 17.7058C20.4674 16.6436 21.7065 15.1338 22.4381 13.3674C23.1698 11.601 23.3612 9.65726 22.9882 7.78204C22.6152 5.90683 21.6946 4.18433 20.3426 2.83238C18.9906 1.48043 17.2682 0.559733 15.3929 0.18673C13.5177 -0.186274 11.574 0.00516516 9.80759 0.736838C8.04118 1.46851 6.5314 2.70755 5.46918 4.29728C4.40696 5.88701 3.84 7.75603 3.84 9.66798C3.84053 12.2317 4.85918 14.6902 6.67198 16.503C8.48478 18.3158 10.9433 19.3344 13.507 19.335Z" fill="#C1BCBC"/>
<path d="M25.889 28.6518C25.1439 25.7387 23.7026 23.05 21.689 20.8168C21.4917 20.6538 21.2483 20.5566 20.993 20.5387C20.7377 20.5207 20.4832 20.583 20.265 20.7168C18.2309 21.9743 15.8869 22.6403 13.4955 22.6403C11.1042 22.6403 8.76007 21.9743 6.726 20.7168C6.50717 20.585 6.25303 20.5239 5.9982 20.5418C5.74337 20.5597 5.50026 20.6557 5.302 20.8168C3.28841 23.05 1.84713 25.7387 1.102 28.6518C0.0510039 35.0218 6.854 37.3218 13.491 37.3218C20.128 37.3218 26.955 35.0218 25.891 28.6538" fill="#C1BCBC"/>
</svg>
