<svg width="63" height="63" viewBox="0 0 63 63" fill="none" xmlns="http://www.w3.org/2000/svg">
<path d="M31.5 63C48.897 63 63 48.897 63 31.5C63 14.103 48.897 0 31.5 0C14.103 0 0 14.103 0 31.5C0 48.897 14.103 63 31.5 63Z" fill="white"/>
<path d="M31.5 62.5C48.6208 62.5 62.5 48.6208 62.5 31.5C62.5 14.3792 48.6208 0.5 31.5 0.5C14.3792 0.5 0.5 14.3792 0.5 31.5C0.5 48.6208 14.3792 62.5 31.5 62.5Z" stroke="#52B788"/>
<path d="M32.5 55C44.3741 55 54 49.8513 54 43.5C54 37.1487 44.3741 32 32.5 32C20.6259 32 11 37.1487 11 43.5C11 49.8513 20.6259 55 32.5 55Z" fill="#52B788"/>
<path d="M32.5 54.5C44.098 54.5 53.5 49.5751 53.5 43.5C53.5 37.4249 44.098 32.5 32.5 32.5C20.902 32.5 11.5 37.4249 11.5 43.5C11.5 49.5751 20.902 54.5 32.5 54.5Z" stroke="white"/>
<path d="M32.5 38C41.0604 38 48 30.8366 48 22C48 13.1634 41.0604 6 32.5 6C23.9396 6 17 13.1634 17 22C17 30.8366 23.9396 38 32.5 38Z" fill="#52B788"/>
<path d="M32.5 37.5C40.7843 37.5 47.5 30.5604 47.5 22C47.5 13.4396 40.7843 6.5 32.5 6.5C24.2157 6.5 17.5 13.4396 17.5 22C17.5 30.5604 24.2157 37.5 32.5 37.5Z" stroke="white"/>
</svg>
