<svg width="19" height="24" viewBox="0 0 19 24" fill="none" xmlns="http://www.w3.org/2000/svg">
<path d="M17.3152 9.58604C17.3154 11.1859 16.8412 12.7499 15.9525 14.0802C15.0639 15.4106 13.8006 16.4475 12.3226 17.0599C10.8446 17.6723 9.21824 17.8327 7.64909 17.5208C6.07994 17.2089 4.63853 16.4387 3.50712 15.3075C2.37572 14.1764 1.60514 12.7352 1.29283 11.1661C0.98052 9.59704 1.14052 7.97059 1.75258 6.49244C2.36463 5.0143 3.40125 3.75084 4.73137 2.86184C6.06149 1.97285 7.62535 1.49824 9.2252 1.49805C11.3704 1.49831 13.4276 2.35046 14.9447 3.86714C16.4617 5.38382 17.3144 7.44087 17.3152 9.58604V9.58604Z" stroke="white" stroke-miterlimit="10"/>
<path d="M13.7342 16.4087L12.5073 17.3662L17.677 23.9901L18.9039 23.0326L13.7342 16.4087Z" fill="white"/>
</svg>
