<svg width="16" height="14" viewBox="0 0 16 14" fill="none" xmlns="http://www.w3.org/2000/svg">
<path d="M9.74296 12.9002C9.56896 13.2095 9.31582 13.4668 9.00952 13.6459C8.70322 13.825 8.35478 13.9194 7.99996 13.9194C7.64514 13.9194 7.2967 13.825 6.9904 13.6459C6.6841 13.4668 6.43096 13.2095 6.25696 12.9002L0.676961 2.97923C0.506155 2.67495 0.417928 2.33128 0.421046 1.98235C0.424165 1.63343 0.518519 1.29139 0.694736 0.990213C0.870952 0.689038 1.1229 0.439208 1.42555 0.265537C1.7282 0.0918665 2.07102 0.000400543 2.41996 0.000225067L13.58 0.000225067C13.9292 0.000204086 14.2723 0.0916281 14.5753 0.265402C14.8782 0.439176 15.1303 0.689241 15.3066 0.990719C15.4829 1.2922 15.5771 1.63458 15.58 1.98379C15.5829 2.33301 15.4943 2.67689 15.323 2.98122L9.74296 12.9002Z" fill="#52B788"/>
</svg>
