<svg width="37" height="37" viewBox="0 0 37 37" fill="none" xmlns="http://www.w3.org/2000/svg">
<path d="M17 34C26.3888 34 34 26.3888 34 17C34 7.61116 26.3888 0 17 0C7.61116 0 0 7.61116 0 17C0 26.3888 7.61116 34 17 34Z" fill="white"/>
<g filter="url(#filter0_d_924_2)">
<path d="M17 34C26.3888 34 34 26.3888 34 17C34 7.61116 26.3888 0 17 0C7.61116 0 0 7.61116 0 17C0 26.3888 7.61116 34 17 34Z" fill="white"/>
</g>
<path d="M17 33.5C26.1127 33.5 33.5 26.1127 33.5 17C33.5 7.8873 26.1127 0.5 17 0.5C7.8873 0.5 0.5 7.8873 0.5 17C0.5 26.1127 7.8873 33.5 17 33.5Z" stroke="#159245"/>
<path opacity="0.199" d="M27.9009 8.57184L27.894 8.56482C27.5711 8.24489 27.135 8.06543 26.6805 8.06543C26.2259 8.06543 25.7898 8.24489 25.4669 8.56482L12.136 21.8198L8.53595 18.2368C8.2131 17.9169 7.77697 17.7374 7.32245 17.7374C6.86793 17.7374 6.4318 17.9169 6.10895 18.2368L6.10196 18.2448C5.94292 18.4028 5.81669 18.5907 5.73056 18.7977C5.64443 19.0046 5.6001 19.2266 5.6001 19.4508C5.6001 19.675 5.64443 19.897 5.73056 20.1039C5.81669 20.3109 5.94292 20.4988 6.10196 20.6568L10.908 25.4368C11.2386 25.7554 11.6798 25.9334 12.1389 25.9334C12.5981 25.9334 13.0394 25.7554 13.37 25.4368L27.903 10.9858C28.0621 10.8278 28.1885 10.6399 28.2747 10.4328C28.3609 10.2257 28.4053 10.0036 28.4053 9.7793C28.4053 9.555 28.3609 9.33292 28.2747 9.12585C28.1885 8.91879 28.0621 8.73083 27.903 8.57281" fill="#159245"/>
<defs>
<filter id="filter0_d_924_2" x="0" y="0" width="37" height="37" filterUnits="userSpaceOnUse" color-interpolation-filters="sRGB">
<feFlood flood-opacity="0" result="BackgroundImageFix"/>
<feColorMatrix in="SourceAlpha" type="matrix" values="0 0 0 0 0 0 0 0 0 0 0 0 0 0 0 0 0 0 127 0" result="hardAlpha"/>
<feOffset dx="2" dy="2"/>
<feGaussianBlur stdDeviation="0.5"/>
<feColorMatrix type="matrix" values="0 0 0 0 0 0 0 0 0 0 0 0 0 0 0 0 0 0 0.161 0"/>
<feBlend mode="normal" in2="BackgroundImageFix" result="effect1_dropShadow_924_2"/>
<feBlend mode="normal" in="SourceGraphic" in2="effect1_dropShadow_924_2" result="shape"/>
</filter>
</defs>
</svg>
