<svg width="34" height="34" viewBox="0 0 34 34" fill="none" xmlns="http://www.w3.org/2000/svg">
<path d="M17 34C26.3888 34 34 26.3888 34 17C34 7.61116 26.3888 0 17 0C7.61116 0 0 7.61116 0 17C0 26.3888 7.61116 34 17 34Z" fill="#159245"/>
<path d="M27.9009 8.57208L27.894 8.56506C27.5711 8.24513 27.135 8.06567 26.6805 8.06567C26.2259 8.06567 25.7898 8.24513 25.4669 8.56506L12.136 21.8201L8.53595 18.2371C8.2131 17.9171 7.77697 17.7377 7.32245 17.7377C6.86793 17.7377 6.4318 17.9171 6.10895 18.2371L6.10196 18.2451C5.94292 18.4031 5.81669 18.5909 5.73056 18.7979C5.64443 19.0049 5.6001 19.2269 5.6001 19.451C5.6001 19.6752 5.64443 19.8972 5.73056 20.1042C5.81669 20.3112 5.94292 20.499 6.10196 20.657L10.908 25.4371C11.2386 25.7557 11.6798 25.9337 12.1389 25.9337C12.5981 25.9337 13.0394 25.7557 13.37 25.4371L27.903 10.9861C28.0621 10.8281 28.1885 10.6401 28.2747 10.433C28.3609 10.226 28.4053 10.0038 28.4053 9.77954C28.4053 9.55524 28.3609 9.33317 28.2747 9.1261C28.1885 8.91903 28.0621 8.73108 27.903 8.57306" fill="white"/>
</svg>
