<svg width="48" height="51" viewBox="0 0 48 51" fill="none" xmlns="http://www.w3.org/2000/svg">
<rect x="4" y="14" width="44" height="5.51999" rx="2.75999" fill="white"/>
<rect width="23.5546" height="4.81905" rx="2.40953" transform="matrix(0.723694 -0.690121 0.577909 0.816101 1 16.2556)" fill="white"/>
<rect width="23.4448" height="4.84019" rx="2.42009" transform="matrix(0.723208 0.69063 -0.580165 0.814499 3.80005 13)" fill="white"/>
<path d="M10.16 47.15C9.59 47.15 9.06 47.045 8.57 46.835C8.09 46.615 7.71 46.32 7.43 45.95H7.4V47H6.26V36.05H7.445V40.25H7.475C7.745 39.87 8.115 39.575 8.585 39.365C9.065 39.155 9.59 39.05 10.16 39.05C11.2 39.05 12.01 39.41 12.59 40.13C13.17 40.84 13.46 41.83 13.46 43.1C13.46 44.37 13.17 45.365 12.59 46.085C12.01 46.795 11.2 47.15 10.16 47.15ZM9.905 46.145C10.675 46.145 11.265 45.885 11.675 45.365C12.095 44.835 12.305 44.08 12.305 43.1C12.305 42.12 12.095 41.37 11.675 40.85C11.265 40.32 10.675 40.055 9.905 40.055C9.435 40.055 9.015 40.155 8.645 40.355C8.275 40.545 7.98 40.81 7.76 41.15C7.55 41.48 7.445 41.87 7.445 42.32V43.88C7.445 44.32 7.55 44.71 7.76 45.05C7.98 45.39 8.275 45.66 8.645 45.86C9.015 46.05 9.435 46.145 9.905 46.145ZM17.2596 47.15C16.4696 47.15 15.8446 46.94 15.3846 46.52C14.9246 46.09 14.6946 45.515 14.6946 44.795C14.6946 43.895 15.0596 43.205 15.7896 42.725C16.5196 42.235 17.5646 41.99 18.9246 41.99H20.1696C20.1696 41.49 20.1096 41.1 19.9896 40.82C19.8696 40.54 19.6696 40.345 19.3896 40.235C19.1096 40.115 18.7196 40.055 18.2196 40.055C17.7196 40.055 17.2096 40.105 16.6896 40.205C16.1796 40.305 15.6896 40.455 15.2196 40.655L15.0096 39.695C15.5096 39.485 16.0446 39.325 16.6146 39.215C17.1946 39.105 17.7796 39.05 18.3696 39.05C19.1196 39.05 19.7096 39.145 20.1396 39.335C20.5696 39.525 20.8796 39.845 21.0696 40.295C21.2596 40.745 21.3546 41.345 21.3546 42.095V47H20.2146L20.1996 45.935H20.1696C19.9096 46.295 19.5046 46.59 18.9546 46.82C18.4146 47.04 17.8496 47.15 17.2596 47.15ZM17.6346 46.175C18.1046 46.175 18.5296 46.085 18.9096 45.905C19.2996 45.725 19.6046 45.485 19.8246 45.185C20.0546 44.875 20.1696 44.535 20.1696 44.165V42.905H19.0746C18.0146 42.905 17.2146 43.06 16.6746 43.37C16.1346 43.67 15.8646 44.11 15.8646 44.69C15.8646 45.15 16.0196 45.515 16.3296 45.785C16.6396 46.045 17.0746 46.175 17.6346 46.175ZM27.098 47.15C26.248 47.15 25.518 46.99 24.908 46.67C24.298 46.34 23.828 45.875 23.498 45.275C23.178 44.665 23.018 43.94 23.018 43.1C23.018 42.26 23.178 41.54 23.498 40.94C23.828 40.33 24.298 39.865 24.908 39.545C25.518 39.215 26.248 39.05 27.098 39.05C27.518 39.05 27.918 39.095 28.298 39.185C28.678 39.265 29.048 39.4 29.408 39.59L29.183 40.55C28.843 40.38 28.508 40.255 28.178 40.175C27.848 40.095 27.513 40.055 27.173 40.055C26.243 40.055 25.518 40.325 24.998 40.865C24.478 41.395 24.218 42.14 24.218 43.1C24.218 44.05 24.478 44.795 24.998 45.335C25.518 45.875 26.243 46.145 27.173 46.145C27.513 46.145 27.848 46.105 28.178 46.025C28.508 45.945 28.843 45.82 29.183 45.65L29.408 46.61C29.048 46.79 28.678 46.925 28.298 47.015C27.918 47.105 27.518 47.15 27.098 47.15ZM31.6897 47V36.05H32.8897V42.545H32.9197L36.9397 39.2H38.4997L33.9697 42.95L38.6947 47H37.1347L32.9197 43.34H32.8897V47H31.6897Z" fill="white"/>
</svg>
