<svg width="40" height="40" viewBox="0 0 40 40" fill="none" xmlns="http://www.w3.org/2000/svg">
<path d="M20 40C31.0457 40 40 31.0457 40 20C40 8.9543 31.0457 0 20 0C8.9543 0 0 8.9543 0 20C0 31.0457 8.9543 40 20 40Z" fill="white"/>
<path d="M19.9995 8.827C22.271 8.8268 24.4916 9.50022 26.3805 10.7621C28.2693 12.024 29.7415 13.8176 30.6109 15.9162C31.4804 18.0148 31.7079 20.3241 31.2649 22.552C30.8219 24.7799 29.7281 26.8265 28.1219 28.4328C26.5158 30.0391 24.4693 31.133 22.2414 31.5762C20.0135 32.0195 17.7042 31.7921 15.6056 30.9229C13.5069 30.0536 11.7131 28.5815 10.4511 26.6928C9.18907 24.8041 8.51546 22.5836 8.51546 20.312C8.51943 17.2674 9.73059 14.3486 11.8834 12.1956C14.0361 10.0426 16.9548 8.83123 19.9995 8.827ZM19.9995 5C16.9711 5.0004 14.0109 5.89877 11.4931 7.58151C8.97533 9.26425 7.01306 11.6558 5.85444 14.4537C4.69582 17.2517 4.39288 20.3303 4.98392 23.3004C5.57496 26.2706 7.03345 28.9987 9.17495 31.1399C11.3164 33.2811 14.0448 34.7393 17.015 35.3299C19.9852 35.9206 23.0638 35.6172 25.8616 34.4583C28.6594 33.2993 31.0506 31.3367 32.7331 28.8187C34.4155 26.3007 35.3135 23.3403 35.3135 20.312C35.3136 18.301 34.9176 16.3097 34.148 14.4517C33.3784 12.5938 32.2504 10.9057 30.8283 9.48378C29.4062 8.06188 27.7179 6.93405 25.8599 6.16472C24.0019 5.39538 22.0105 4.99961 19.9995 5Z" fill="#FDAB29"/>
<path d="M20.8213 13.762V20.568C20.8213 20.7892 20.7334 21.0013 20.577 21.1577C20.4206 21.3141 20.2085 21.402 19.9873 21.402C19.7661 21.402 19.554 21.3141 19.3976 21.1577C19.2412 21.0013 19.1533 20.7892 19.1533 20.568V13.762C19.1533 13.5408 19.2412 13.3287 19.3976 13.1723C19.554 13.0159 19.7661 12.928 19.9873 12.928C20.2085 12.928 20.4206 13.0159 20.577 13.1723C20.7334 13.3287 20.8213 13.5408 20.8213 13.762Z" fill="#FDAB29"/>
<path d="M26.7933 21.4019H19.9873C19.7661 21.4019 19.554 21.314 19.3976 21.1576C19.2412 21.0012 19.1533 20.7891 19.1533 20.5679C19.1533 20.3467 19.2412 20.1346 19.3976 19.9782C19.554 19.8218 19.7661 19.7339 19.9873 19.7339H26.7933C27.0145 19.7339 27.2266 19.8218 27.383 19.9782C27.5394 20.1346 27.6273 20.3467 27.6273 20.5679C27.6273 20.7891 27.5394 21.0012 27.383 21.1576C27.2266 21.314 27.0145 21.4019 26.7933 21.4019Z" fill="#FDAB29"/>
</svg>
