<svg width="40" height="40" viewBox="0 0 40 40" fill="none" xmlns="http://www.w3.org/2000/svg">
<path d="M20 40C31.0457 40 40 31.0457 40 20C40 8.9543 31.0457 0 20 0C8.9543 0 0 8.9543 0 20C0 31.0457 8.9543 40 20 40Z" fill="white"/>
<path d="M20 34C27.732 34 34 30.866 34 27C34 23.134 27.732 20 20 20C12.268 20 6 23.134 6 27C6 30.866 12.268 34 20 34Z" fill="#FDAB29"/>
<path d="M20 33.5C27.4558 33.5 33.5 30.5899 33.5 27C33.5 23.4101 27.4558 20.5 20 20.5C12.5442 20.5 6.5 23.4101 6.5 27C6.5 30.5899 12.5442 33.5 20 33.5Z" stroke="white"/>
<path d="M20 24C25.5228 24 30 19.5228 30 14C30 8.47715 25.5228 4 20 4C14.4772 4 10 8.47715 10 14C10 19.5228 14.4772 24 20 24Z" fill="#FDAB29"/>
<path d="M20 23.5C25.2467 23.5 29.5 19.2467 29.5 14C29.5 8.75329 25.2467 4.5 20 4.5C14.7533 4.5 10.5 8.75329 10.5 14C10.5 19.2467 14.7533 23.5 20 23.5Z" stroke="white"/>
<path d="M29 34C32.866 34 36 30.866 36 27C36 23.134 32.866 20 29 20C25.134 20 22 23.134 22 27C22 30.866 25.134 34 29 34Z" fill="white"/>
<path d="M29 33.5C32.5899 33.5 35.5 30.5899 35.5 27C35.5 23.4101 32.5899 20.5 29 20.5C25.4101 20.5 22.5 23.4101 22.5 27C22.5 30.5899 25.4101 33.5 29 33.5Z" stroke="#FDAB29"/>
<path d="M33.1299 26.2203L32.1819 26.1763C32.1389 26.1752 32.0971 26.1616 32.0616 26.1373C32.0261 26.113 31.9984 26.079 31.9819 26.0393L31.7819 25.5693C31.7658 25.53 31.7612 25.487 31.7686 25.4452C31.7761 25.4034 31.7952 25.3646 31.8239 25.3333L32.4629 24.6333C32.5013 24.5908 32.522 24.5352 32.5207 24.4779C32.5194 24.4206 32.4962 24.366 32.4559 24.3253L31.6769 23.5353C31.6361 23.4947 31.5813 23.4713 31.5238 23.47C31.4662 23.4687 31.4104 23.4895 31.3679 23.5283L30.6679 24.1673C30.6365 24.1959 30.5976 24.2149 30.5558 24.2222C30.514 24.2294 30.471 24.2246 30.4319 24.2083L29.9619 24.0133C29.9222 23.9967 29.8881 23.969 29.8638 23.9335C29.8395 23.898 29.826 23.8563 29.8249 23.8133L29.7799 22.8703C29.7773 22.812 29.7519 22.7571 29.7093 22.7173C29.6667 22.6775 29.6102 22.6559 29.5519 22.6573H28.4419C28.3845 22.6575 28.3294 22.6797 28.2879 22.7193C28.2464 22.7589 28.2217 22.813 28.2189 22.8703L28.1749 23.8173C28.1738 23.8603 28.1602 23.902 28.1359 23.9375C28.1116 23.973 28.0776 24.0007 28.0379 24.0173L27.5679 24.2123C27.5283 24.2281 27.4851 24.2323 27.4433 24.2243C27.4015 24.2163 27.3628 24.1965 27.3319 24.1673L26.6319 23.5283C26.5893 23.4892 26.5332 23.4682 26.4755 23.4695C26.4177 23.4708 26.3627 23.4944 26.3219 23.5353L25.5349 24.3233C25.4943 24.3639 25.4709 24.4185 25.4696 24.4759C25.4683 24.5332 25.4892 24.5889 25.5279 24.6313L26.1669 25.3313C26.1954 25.3626 26.2145 25.4015 26.2217 25.4433C26.229 25.4851 26.2242 25.5281 26.2079 25.5673L26.0129 26.0373C25.9963 26.077 25.9686 26.111 25.9331 26.1353C25.8976 26.1596 25.8559 26.1732 25.8129 26.1743L24.8659 26.2183C24.8079 26.2206 24.7532 26.2454 24.7133 26.2874C24.6733 26.3294 24.6513 26.3853 24.6519 26.4433V27.5573C24.6521 27.6147 24.6743 27.6698 24.7139 27.7113C24.7535 27.7528 24.8076 27.7775 24.8649 27.7803L25.8119 27.8243C25.8549 27.8254 25.8966 27.8389 25.9321 27.8632C25.9676 27.8875 25.9953 27.9216 26.0119 27.9613L26.2069 28.4313C26.2232 28.4705 26.228 28.5135 26.2207 28.5553C26.2135 28.5971 26.1944 28.6359 26.1659 28.6673L25.5269 29.3673C25.4881 29.4098 25.4672 29.4657 25.4685 29.5232C25.4698 29.5807 25.4932 29.6355 25.5339 29.6763L26.3219 30.4643C26.3626 30.5046 26.4172 30.5278 26.4745 30.5291C26.5318 30.5304 26.5874 30.5097 26.6299 30.4713L27.3299 29.8323C27.3612 29.8037 27.4001 29.7847 27.4419 29.7774C27.4837 29.7701 27.5267 29.775 27.5659 29.7913L28.0359 29.9863C28.0756 30.0029 28.1096 30.0306 28.1339 30.066C28.1582 30.1015 28.1718 30.1433 28.1729 30.1863L28.2169 31.1333C28.2197 31.1906 28.2444 31.2446 28.2859 31.2843C28.3274 31.3239 28.3825 31.3461 28.4399 31.3463H29.5519C29.6093 31.3463 29.6646 31.3242 29.7061 31.2845C29.7477 31.2449 29.7723 31.1907 29.7749 31.1333L29.8189 30.1863C29.82 30.1433 29.8335 30.1015 29.8578 30.066C29.8821 30.0306 29.9162 30.0029 29.9559 29.9863L30.4259 29.7913C30.4651 29.7751 30.508 29.7703 30.5498 29.7776C30.5916 29.7849 30.6304 29.8038 30.6619 29.8323L31.3619 30.4713C31.4044 30.51 31.4602 30.5309 31.5178 30.5296C31.5753 30.5283 31.6301 30.5049 31.6709 30.4643L32.4589 29.6763C32.4995 29.6355 32.5229 29.5807 32.5242 29.5232C32.5255 29.4657 32.5046 29.4098 32.4659 29.3673L31.8269 28.6673C31.7981 28.636 31.7789 28.5972 31.7715 28.5554C31.764 28.5136 31.7687 28.4705 31.7849 28.4313L31.9849 27.9613C32.0014 27.9216 32.0291 27.8875 32.0646 27.8632C32.1001 27.8389 32.1419 27.8254 32.1849 27.8243L33.1329 27.7803C33.1897 27.777 33.2432 27.752 33.2822 27.7105C33.3213 27.6691 33.343 27.6142 33.3429 27.5573V26.4433C33.3429 26.3858 33.3208 26.3306 33.2811 26.289C33.2414 26.2475 33.1873 26.2229 33.1299 26.2203ZM28.9999 28.4203C28.7192 28.4205 28.4447 28.3374 28.2112 28.1816C27.9778 28.0258 27.7957 27.8043 27.6882 27.545C27.5806 27.2857 27.5524 27.0004 27.607 26.7251C27.6616 26.4497 27.7967 26.1968 27.9951 25.9983C28.1935 25.7997 28.4464 25.6645 28.7217 25.6096C28.997 25.5548 29.2823 25.5828 29.5417 25.6902C29.801 25.7976 30.0227 25.9795 30.1787 26.2128C30.3346 26.4462 30.4179 26.7206 30.4179 27.0013C30.4176 27.3773 30.2681 27.7378 30.0023 28.0037C29.7364 28.2695 29.3759 28.419 28.9999 28.4193V28.4203Z" fill="#FDAB29"/>
</svg>
