<svg width="40" height="40" viewBox="0 0 40 40" fill="none" xmlns="http://www.w3.org/2000/svg">
<path d="M20 40C31.0457 40 40 31.0457 40 20C40 8.9543 31.0457 0 20 0C8.9543 0 0 8.9543 0 20C0 31.0457 8.9543 40 20 40Z" fill="white"/>
<path d="M32.3881 17.254L29.6611 17.128C29.5387 17.1222 29.4205 17.0815 29.3205 17.0106C29.2206 16.9397 29.143 16.8416 29.0971 16.728L28.5351 15.38C28.4887 15.2671 28.4753 15.1433 28.4966 15.0231C28.5178 14.9029 28.5728 14.7912 28.6551 14.701L30.4961 12.683C30.6073 12.5606 30.6671 12.4001 30.6632 12.2348C30.6593 12.0695 30.5919 11.912 30.4751 11.795L28.2061 9.527C28.0889 9.41001 27.9311 9.34266 27.7656 9.33894C27.6001 9.33521 27.4394 9.3954 27.3171 9.507L25.2961 11.346C25.2058 11.4284 25.0939 11.4834 24.9734 11.5045C24.853 11.5256 24.729 11.5119 24.6161 11.465L23.2681 10.9C23.1543 10.854 23.0562 10.7763 22.9853 10.6761C22.9144 10.576 22.8737 10.4576 22.8681 10.335L22.7461 7.613C22.7384 7.44806 22.6675 7.29241 22.5482 7.17829C22.4289 7.06417 22.2702 7.00033 22.1051 7H18.8961C18.7309 7.00032 18.5721 7.06413 18.4526 7.17822C18.3331 7.29232 18.262 7.44798 18.2541 7.613L18.1281 10.34C18.1225 10.4626 18.0818 10.581 18.0109 10.6811C17.94 10.7813 17.8419 10.859 17.7281 10.905L16.3761 11.466C16.2632 11.513 16.1392 11.5268 16.0187 11.5057C15.8983 11.4846 15.7863 11.4295 15.6961 11.347L13.6831 9.507C13.5608 9.3954 13.4001 9.33521 13.2346 9.33894C13.069 9.34266 12.9113 9.41001 12.7941 9.527L10.5281 11.795C10.411 11.9119 10.3435 12.0694 10.3396 12.2348C10.3357 12.4002 10.3957 12.5607 10.5071 12.683L12.3461 14.7C12.4284 14.7902 12.4832 14.902 12.5041 15.0223C12.525 15.1426 12.5111 15.2663 12.4641 15.379L11.9041 16.731C11.858 16.8447 11.7803 16.9428 11.6801 17.0137C11.58 17.0846 11.4616 17.1253 11.3391 17.131L8.61309 17.257C8.44711 17.2637 8.29016 17.3344 8.17514 17.4543C8.06012 17.5741 7.99596 17.7339 7.99609 17.9V21.1C7.99617 21.2653 8.0599 21.4242 8.17404 21.5437C8.28819 21.6633 8.44399 21.7343 8.60909 21.742L11.3351 21.868C11.4576 21.8737 11.576 21.9144 11.6761 21.9853C11.7763 22.0562 11.854 22.1543 11.9001 22.268L12.4601 23.62C12.5071 23.7327 12.521 23.8564 12.5001 23.9767C12.4792 24.097 12.4244 24.2088 12.3421 24.299L10.5071 26.317C10.3955 26.4393 10.3353 26.6 10.339 26.7655C10.3428 26.9311 10.4101 27.0888 10.5271 27.206L12.7961 29.473C12.913 29.5901 13.0705 29.6576 13.2359 29.6615C13.4013 29.6654 13.5618 29.6054 13.6841 29.494L15.6961 27.654C15.7864 27.5716 15.8983 27.5166 16.0188 27.4955C16.1392 27.4744 16.2632 27.4881 16.3761 27.535L17.7281 28.095C17.8418 28.1411 17.9399 28.2188 18.0108 28.319C18.0817 28.4191 18.1224 28.5374 18.1281 28.66L18.2541 31.386C18.2618 31.5512 18.3328 31.7071 18.4523 31.8214C18.5718 31.9357 18.7307 31.9997 18.8961 32H22.1041C22.2694 31.9999 22.4283 31.9362 22.5478 31.8221C22.6674 31.7079 22.7384 31.5521 22.7461 31.387L22.8721 28.661C22.8778 28.5384 22.9185 28.4201 22.9894 28.32C23.0603 28.2198 23.1584 28.1421 23.2721 28.096L24.6241 27.536C24.737 27.4893 24.861 27.4756 24.9814 27.4967C25.1018 27.5178 25.2137 27.5727 25.3041 27.655L27.3211 29.495C27.4437 29.6062 27.6043 29.6661 27.7698 29.6622C27.9353 29.6583 28.0929 29.5909 28.2101 29.474L30.4771 27.206C30.5938 27.0887 30.661 26.9311 30.6649 26.7657C30.6688 26.6003 30.6091 26.4397 30.4981 26.317L28.6551 24.3C28.5726 24.21 28.5175 24.0982 28.4962 23.978C28.4749 23.8577 28.4884 23.7339 28.5351 23.621L29.0971 22.269C29.143 22.1554 29.2206 22.0573 29.3205 21.9864C29.4205 21.9155 29.5387 21.8748 29.6611 21.869L32.3881 21.743C32.5525 21.734 32.7072 21.6624 32.8203 21.5427C32.9334 21.4231 32.9963 21.2646 32.9961 21.1V17.9C32.9974 17.7348 32.9349 17.5754 32.8216 17.4551C32.7084 17.3348 32.5531 17.2627 32.3881 17.254ZM20.4961 23.583C19.6887 23.5822 18.8997 23.3421 18.2288 22.8929C17.5579 22.4438 17.0352 21.8059 16.7267 21.0597C16.4183 20.3136 16.338 19.4928 16.496 18.701C16.654 17.9092 17.0432 17.1821 17.6144 16.6115C18.1856 16.0409 18.9131 15.6524 19.705 15.4952C20.4969 15.3379 21.3177 15.419 22.0635 15.7282C22.8094 16.0373 23.4468 16.5607 23.8953 17.232C24.3437 17.9034 24.5831 18.6926 24.5831 19.5C24.583 20.0365 24.4771 20.5677 24.2716 21.0633C24.0662 21.5588 23.765 22.0091 23.3855 22.3882C23.006 22.7674 22.5554 23.0681 22.0597 23.2731C21.5639 23.4781 21.0326 23.5834 20.4961 23.583Z" fill="#FDAB29"/>
</svg>
