<svg width="40" height="40" viewBox="0 0 40 40" fill="none" xmlns="http://www.w3.org/2000/svg">
<circle cx="20" cy="20" r="20" fill="white"/>
<rect x="19.4417" y="2.86584" width="9.44982" height="13.6283" rx="0.85" transform="rotate(25 19.4417 2.86584)" fill="#FDAB29" stroke="white" stroke-width="0.3"/>
<rect x="9.13867" y="13.0239" width="21.555" height="21.555" rx="1.75" fill="#FDAB29" stroke="white" stroke-width="0.5"/>
<path d="M19.9152 18.2876C21.0058 18.2875 22.072 18.6109 22.9789 19.2167C23.8857 19.8226 24.5926 20.6837 25.01 21.6913C25.4274 22.6989 25.5367 23.8077 25.324 24.8774C25.1113 25.947 24.5861 26.9296 23.815 27.7009C23.0438 28.4721 22.0613 28.9973 20.9916 29.2101C19.9219 29.4229 18.8132 29.3138 17.8056 28.8964C16.7979 28.4791 15.9367 27.7723 15.3308 26.8655C14.7248 25.9586 14.4014 24.8925 14.4014 23.8019C14.4033 22.3401 14.9848 20.9387 16.0184 19.905C17.052 18.8713 18.4534 18.2897 19.9152 18.2876M19.9152 16.4502C18.4612 16.4504 17.0399 16.8817 15.8311 17.6896C14.6222 18.4976 13.6801 19.6458 13.1238 20.9892C12.5675 22.3325 12.4221 23.8107 12.7058 25.2367C12.9896 26.6627 13.6899 27.9726 14.7181 29.0006C15.7462 30.0287 17.0562 30.7288 18.4822 31.0124C19.9083 31.296 21.3864 31.1503 22.7297 30.5938C24.073 30.0374 25.2211 29.0951 26.0289 27.8861C26.8367 26.6772 27.2678 25.2559 27.2678 23.8019C27.2679 22.8363 27.0777 21.8802 26.7082 20.9882C26.3387 20.0962 25.7971 19.2857 25.1144 18.603C24.4316 17.9203 23.621 17.3788 22.7289 17.0094C21.8368 16.64 20.8807 16.45 19.9152 16.4502" fill="white"/>
<path d="M20.3096 20.6538V23.9216C20.3096 24.0278 20.2674 24.1296 20.1924 24.2047C20.1173 24.2798 20.0154 24.322 19.9092 24.322C19.803 24.322 19.7012 24.2798 19.6261 24.2047C19.551 24.1296 19.5088 24.0278 19.5088 23.9216V20.6538C19.5088 20.5476 19.551 20.4458 19.6261 20.3707C19.7012 20.2956 19.803 20.2534 19.9092 20.2534C20.0154 20.2534 20.1173 20.2956 20.1924 20.3707C20.2674 20.4458 20.3096 20.5476 20.3096 20.6538" fill="white"/>
<path d="M23.1769 24.3267H19.9092C19.803 24.3267 19.7012 24.2845 19.6261 24.2094C19.551 24.1343 19.5088 24.0325 19.5088 23.9263C19.5088 23.8201 19.551 23.7183 19.6261 23.6432C19.7012 23.5681 19.803 23.5259 19.9092 23.5259H23.1769C23.2831 23.5259 23.385 23.5681 23.4601 23.6432C23.5352 23.7183 23.5774 23.8201 23.5774 23.9263C23.5774 24.0325 23.5352 24.1343 23.4601 24.2094C23.385 24.2845 23.2831 24.3267 23.1769 24.3267" fill="white"/>
<path d="M20.8204 11.5028C22.1898 12.1414 23.5588 12.104 23.8781 11.4192C24.1974 10.7345 23.3461 9.66177 21.9767 9.02319C20.6072 8.38461 19.2382 8.42202 18.9189 9.10674C18.5997 9.79146 19.451 10.8642 20.8204 11.5028Z" fill="white"/>
<path d="M20.8613 11.4152C22.1818 12.031 23.4927 12.0148 23.7892 11.379C24.0857 10.7431 23.2555 9.72853 21.935 9.11276C20.6144 8.49699 19.3036 8.51323 19.0071 9.14904C18.7106 9.78485 19.5408 10.7995 20.8613 11.4152Z" fill="white" stroke="#FDAB29" stroke-width="0.3"/>
<path d="M21.6457 9.73071C22.6239 10.1868 23.7866 9.76364 24.2427 8.78547C24.6989 7.8073 24.2757 6.64457 23.2975 6.18844C22.3193 5.73231 21.1566 6.15551 20.7005 7.13368C20.2443 8.11185 20.6675 9.27458 21.6457 9.73071Z" fill="white"/>
<path d="M21.6866 9.64316C22.6159 10.0765 23.7205 9.67445 24.1538 8.74518C24.5871 7.81592 24.1851 6.71133 23.2558 6.27801C22.3266 5.84469 21.222 6.24672 20.7886 7.17599C20.3553 8.10525 20.7574 9.20984 21.6866 9.64316Z" fill="white" stroke="#FDAB29" stroke-width="0.3"/>
</svg>
