<svg width="40" height="40" viewBox="0 0 40 40" fill="none" xmlns="http://www.w3.org/2000/svg">
<path d="M20 40C31.0457 40 40 31.0457 40 20C40 8.9543 31.0457 0 20 0C8.9543 0 0 8.9543 0 20C0 31.0457 8.9543 40 20 40Z" fill="white"/>
<path d="M20 34C27.732 34 34 30.866 34 27C34 23.134 27.732 20 20 20C12.268 20 6 23.134 6 27C6 30.866 12.268 34 20 34Z" fill="#FDAB29"/>
<path d="M20 33.5C27.4558 33.5 33.5 30.5899 33.5 27C33.5 23.4101 27.4558 20.5 20 20.5C12.5442 20.5 6.5 23.4101 6.5 27C6.5 30.5899 12.5442 33.5 20 33.5Z" stroke="white"/>
<path d="M20 24C25.5228 24 30 19.5228 30 14C30 8.47715 25.5228 4 20 4C14.4772 4 10 8.47715 10 14C10 19.5228 14.4772 24 20 24Z" fill="#FDAB29"/>
<path d="M20 23.5C25.2467 23.5 29.5 19.2467 29.5 14C29.5 8.75329 25.2467 4.5 20 4.5C14.7533 4.5 10.5 8.75329 10.5 14C10.5 19.2467 14.7533 23.5 20 23.5Z" stroke="white"/>
</svg>
