<svg width="43" height="52" viewBox="0 0 43 52" fill="none" xmlns="http://www.w3.org/2000/svg">
<path d="M1.5 1H41.5" stroke="white" stroke-width="2" stroke-linecap="round"/>
<path d="M1.5 14H41.5" stroke="white" stroke-width="2" stroke-linecap="round"/>
<path d="M1.5 27H41.5" stroke="white" stroke-width="2" stroke-linecap="round"/>
<path d="M2.885 45.41C2.81 44.81 2.78 44.405 2.78 43.715V40.775C2.78 40.385 3.005 39.68 3.275 39.275C3.74 38.555 4.46 38.135 5.24 38.135C6.32 38.135 6.92 38.855 6.92 40.175V43.715C6.92 44.48 6.89 44.87 6.815 45.41H8.165C8.09 44.9 8.06 44.48 8.06 43.73V40.775C8.06 40.325 8.27 39.665 8.555 39.23C8.99 38.54 9.695 38.135 10.445 38.135C11.645 38.135 12.17 38.75 12.17 40.175V43.715C12.17 44.51 12.155 44.855 12.065 45.41H13.415C13.34 44.885 13.31 44.48 13.31 43.73V40.025C13.31 39.14 13.16 38.555 12.8 38.075C12.35 37.475 11.6 37.16 10.61 37.16C9.35 37.16 8.54 37.64 7.835 38.795C7.685 38.345 7.595 38.165 7.37 37.925C6.92 37.415 6.29 37.16 5.435 37.16C4.565 37.16 3.83 37.43 3.32 37.94C3.02 38.255 2.885 38.435 2.75 38.69C2.765 38.405 2.78 38.225 2.78 38.15V37.325H1.565C1.64 37.865 1.67 38.27 1.67 39.02V43.715C1.67 44.42 1.64 44.87 1.565 45.41H2.885ZM22.605 41.54C22.575 41.135 22.515 40.55 22.5 40.385C22.2 38.375 20.805 37.13 18.87 37.13C16.62 37.13 15.15 38.81 15.15 41.375C15.15 43.97 16.635 45.62 18.99 45.62C20.085 45.62 21 45.26 21.705 44.57C22.05 44.225 22.245 43.955 22.53 43.325L21.48 42.905C21.06 44.06 20.22 44.66 19.005 44.66C18.105 44.66 17.37 44.3 16.89 43.64C16.485 43.1 16.335 42.545 16.29 41.54H22.605ZM16.335 40.595C16.425 40.025 16.5 39.755 16.71 39.38C17.16 38.54 17.925 38.075 18.84 38.075C19.56 38.075 20.145 38.3 20.61 38.75C21.09 39.215 21.315 39.755 21.405 40.595H16.335ZM25.6933 45.41C25.6183 44.825 25.5883 44.375 25.5883 43.715V40.82C25.7083 40.22 25.8883 39.845 26.2783 39.335C26.9083 38.525 27.5833 38.15 28.4233 38.15C29.6083 38.15 30.2533 38.87 30.2533 40.22V43.715C30.2533 44.375 30.2233 44.825 30.1483 45.41H31.4983C31.4233 44.915 31.3933 44.495 31.3933 43.73V40.025C31.3933 39.29 31.2583 38.735 30.9733 38.3C30.4933 37.565 29.6533 37.175 28.5733 37.175C27.2233 37.175 26.2483 37.76 25.5433 38.99C25.5883 38.645 25.5883 38.525 25.5883 38.345V37.325H24.3433C24.4333 37.925 24.4633 38.345 24.4633 39.02V43.715C24.4633 44.435 24.4333 44.84 24.3433 45.41H25.6933ZM39.5108 45.41H40.7558C40.6658 44.81 40.6358 44.39 40.6358 43.715V39.02C40.6358 38.33 40.6658 37.85 40.7408 37.325H39.4058C39.4808 37.85 39.5108 38.375 39.5108 39.02V41.915C39.3758 42.515 39.2108 42.89 38.8208 43.415C38.2208 44.225 37.5158 44.6 36.6608 44.6C35.4908 44.6 34.8458 43.85 34.8458 42.515V39.02C34.8458 38.36 34.8758 37.85 34.9508 37.325H33.6008C33.6758 37.805 33.7058 38.33 33.7058 39.005V42.71C33.7058 43.43 33.8558 44.015 34.1258 44.45C34.6058 45.17 35.4458 45.56 36.5258 45.56C37.8758 45.56 38.8058 45.005 39.5558 43.775C39.5108 44.165 39.5108 44.27 39.5108 44.435V45.41Z" fill="white"/>
</svg>
