<svg width="20" height="20" viewBox="0 0 20 20" fill="none" xmlns="http://www.w3.org/2000/svg">
<circle cx="10" cy="10" r="10" fill="#EF4716"/>
<path d="M2.539 13V7.89H3.561L5.696 11.369H5.71V7.89H6.69V13H5.661L3.533 9.521H3.519V13H2.539ZM7.76849 13V7.89H11.2405V8.723H8.74849V9.941H11.1005V10.746H8.74849V12.167H11.2405V13H7.76849ZM13.0167 13L11.8757 7.89H12.8837L13.6327 11.789H13.6467L14.3957 8.31H15.5927L16.3417 11.789H16.3557L17.1047 7.89H18.1127L16.9647 13H15.7747L14.9977 9.521H14.9837L14.2137 13H13.0167Z" fill="white"/>
</svg>
