<svg width="80" height="80" viewBox="0 0 80 80" fill="none" xmlns="http://www.w3.org/2000/svg">
<path d="M39.8308 79.6617C61.8288 79.6617 79.6617 61.8288 79.6617 39.8308C79.6617 17.8329 61.8288 0 39.8308 0C17.8329 0 0 17.8329 0 39.8308C0 61.8288 17.8329 79.6617 39.8308 79.6617Z" fill="white"/>
<path d="M39.8309 78.6662C61.2789 78.6662 78.666 61.2792 78.666 39.8312C78.666 18.3831 61.2789 0.996094 39.8309 0.996094C18.3829 0.996094 0.99585 18.3831 0.99585 39.8312C0.99585 61.2792 18.3829 78.6662 39.8309 78.6662Z" stroke="#52B788"/>
<path d="M39.8308 67.7117C55.2294 67.7117 67.7124 61.4702 67.7124 53.7709C67.7124 46.0716 55.2294 39.8301 39.8308 39.8301C24.4322 39.8301 11.9492 46.0716 11.9492 53.7709C11.9492 61.4702 24.4322 67.7117 39.8308 67.7117Z" fill="#52B788"/>
<path d="M39.8309 66.7162C54.6795 66.7162 66.7167 60.9205 66.7167 53.7712C66.7167 46.6219 54.6795 40.8262 39.8309 40.8262C24.9823 40.8262 12.9451 46.6219 12.9451 53.7712C12.9451 60.9205 24.9823 66.7162 39.8309 66.7162Z" stroke="white"/>
<path d="M39.8309 47.7976C50.8299 47.7976 59.7464 38.8812 59.7464 27.8822C59.7464 16.8832 50.8299 7.9668 39.8309 7.9668C28.832 7.9668 19.9155 16.8832 19.9155 27.8822C19.9155 38.8812 28.832 47.7976 39.8309 47.7976Z" fill="#52B788"/>
<path d="M39.831 46.8022C50.2801 46.8022 58.7507 38.3316 58.7507 27.8825C58.7507 17.4335 50.2801 8.96289 39.831 8.96289C29.382 8.96289 20.9114 17.4335 20.9114 27.8825C20.9114 38.3316 29.382 46.8022 39.831 46.8022Z" stroke="white"/>
<path d="M30 37.4V35.14H32.36V27.36H34.98V35.14H38.14V24H40.8V28.64H47.04V30.84H40.8V35.14H48V37.4H30ZM30.44 27.52L29.4 25.34C30.4667 24.7667 31.4467 24.2 32.34 23.64C33.2333 23.0667 34.0867 22.46 34.9 21.82C35.7133 21.18 36.52 20.4867 37.32 19.74H40.68C41.48 20.4867 42.2867 21.18 43.1 21.82C43.9133 22.46 44.7667 23.0667 45.66 23.64C46.5533 24.2 47.5333 24.7667 48.6 25.34L47.56 27.52C45.92 26.68 44.3933 25.76 42.98 24.76C41.5667 23.76 40.24 22.6533 39 21.44C37.76 22.6533 36.4333 23.76 35.02 24.76C33.6067 25.76 32.08 26.68 30.44 27.52Z" fill="white"/>
</svg>
