<svg width="78" height="78" viewBox="0 0 78 78" fill="none" xmlns="http://www.w3.org/2000/svg">
<path d="M53 49.5H28.5V42.5H53V49.5ZM63.5 35.5H28.5V28.5H63.5V35.5ZM63.5 21.5H28.5V14.5H63.5V21.5ZM7.5 14.5V70.5H63.5V77.5H7.5C5.64348 77.5 3.86301 76.7625 2.55025 75.4497C1.2375 74.137 0.5 72.3565 0.5 70.5V14.5H7.5ZM70.5 0.5C72.3565 0.5 74.137 1.2375 75.4497 2.55025C76.7625 3.86301 77.5 5.64348 77.5 7.5V56.5C77.5 60.385 74.385 63.5 70.5 63.5H21.5C19.6435 63.5 17.863 62.7625 16.5503 61.4497C15.2375 60.137 14.5 58.3565 14.5 56.5V7.5C14.5 3.615 17.615 0.5 21.5 0.5H70.5ZM21.5 7.5V56.5H70.5V7.5H21.5Z" fill="#52B788"/>
</svg>
