<svg width="84" height="75" viewBox="0 0 84 75" fill="none" xmlns="http://www.w3.org/2000/svg">
<path d="M41.9999 0.375C19.0833 0.375 0.333252 15.225 0.333252 33.375C0.333252 42.0375 4.49992 50.2875 11.9999 56.0625C11.9999 58.5375 10.3333 65.1375 0.333252 74.625C0.333252 74.625 14.9166 74.625 27.4166 64.3125C31.9999 65.55 36.9999 66.375 41.9999 66.375C64.9166 66.375 83.6666 51.525 83.6666 33.375C83.6666 15.225 64.9166 0.375 41.9999 0.375ZM46.1666 49.875H37.8333V41.625H46.1666V49.875ZM53.6666 29.25C52.4166 30.9 50.7499 31.725 49.0833 32.55C47.8333 33.375 47.4166 33.7875 46.9999 34.6125C46.1666 35.4375 46.1666 36.2625 46.1666 37.5H37.8333C37.8333 35.4375 38.2499 34.2 39.0833 32.9625C39.9166 32.1375 41.5833 30.9 43.6666 29.6625C44.9166 29.25 45.7499 28.425 46.1666 27.6C46.5833 26.775 46.9999 25.5375 46.9999 24.7125C46.9999 23.475 46.5833 22.65 45.7499 21.825C44.9166 21 43.6666 20.5875 42.4166 20.5875C41.1666 20.5875 40.3333 21 39.4999 21.4125C38.6666 21.825 38.2499 22.65 38.2499 23.8875H29.9166C30.3333 21 31.5833 18.525 33.6666 16.875C35.7499 15.225 38.6666 14.8125 42.4166 14.8125C46.1666 14.8125 49.4999 15.6375 51.5833 17.2875C53.6666 18.9375 54.9166 21.4125 54.9166 24.3C55.3333 25.95 54.9166 27.6 53.6666 29.25Z" fill="#52B788"/>
</svg>
