<svg width="28" height="18" viewBox="0 0 28 18" fill="none" xmlns="http://www.w3.org/2000/svg">
<path d="M2.04007 9.91253C1.86377 9.83375 1.71405 9.70562 1.60899 9.54361C1.50393 9.38159 1.44803 9.19263 1.44803 8.99953C1.44803 8.80643 1.50393 8.61747 1.60899 8.45545C1.71405 8.29344 1.86377 8.1653 2.04007 8.08653L17.8181 1.02553C17.9703 0.957482 18.1372 0.928599 18.3035 0.941513C18.4698 0.954427 18.6302 1.00873 18.7701 1.09947C18.9101 1.19021 19.0251 1.31451 19.1047 1.46106C19.1844 1.60761 19.2261 1.77174 19.2261 1.93853L19.2261 16.0605C19.2261 16.2273 19.1844 16.3915 19.1047 16.538C19.0251 16.6845 18.9101 16.8088 18.7701 16.8996C18.6302 16.9903 18.4698 17.0446 18.3035 17.0575C18.1372 17.0705 17.9703 17.0416 17.8181 16.9735L2.04007 9.91253Z" fill="#52B788"/>
<path d="M10.0381 8.14958C10.2144 8.22836 10.3641 8.35649 10.4692 8.5185C10.5742 8.68052 10.6301 8.86948 10.6301 9.06258C10.6301 9.25568 10.5742 9.44464 10.4692 9.60666C10.3641 9.76867 10.2144 9.8968 10.0381 9.97558L1.40809 13.8376C1.25582 13.9056 1.08894 13.9345 0.922658 13.9216C0.756374 13.9087 0.59596 13.8544 0.45602 13.7636C0.316081 13.6729 0.20106 13.5486 0.121428 13.402C0.0417969 13.2555 8.37701e-05 13.0914 8.67844e-05 12.9246V5.20058C8.37701e-05 5.03379 0.0417969 4.86966 0.121428 4.72311C0.20106 4.57656 0.316081 4.45226 0.45602 4.36152C0.59596 4.27078 0.756374 4.21648 0.922658 4.20356C1.08894 4.19065 1.25582 4.21953 1.40809 4.28758L10.0381 8.14958Z" fill="#52B788"/>
<path d="M21 6L27 2.5" stroke="#52B788"/>
<path d="M21 9H28" stroke="#52B788"/>
<path d="M21 12L27 15.5" stroke="#52B788"/>
</svg>
