<svg width="81" height="85" viewBox="0 0 81 85" fill="none" xmlns="http://www.w3.org/2000/svg">
<path d="M51.9375 37.5C62.25 37.5 70.5 45.75 70.5 56.0625C70.5 59.6925 69.4688 63.1162 67.6537 65.9625L80.3587 78.75L74.625 84.4837L61.755 71.82C58.9087 73.5937 55.5262 74.625 51.9375 74.625C41.625 74.625 33.375 66.375 33.375 56.0625C33.375 45.75 41.625 37.5 51.9375 37.5ZM51.9375 45.75C49.2025 45.75 46.5794 46.8365 44.6455 48.7705C42.7115 50.7044 41.625 53.3274 41.625 56.0625C41.625 58.7975 42.7115 61.4206 44.6455 63.3545C46.5794 65.2885 49.2025 66.375 51.9375 66.375C54.6725 66.375 57.2956 65.2885 59.2295 63.3545C61.1635 61.4206 62.25 58.7975 62.25 56.0625C62.25 53.3274 61.1635 50.7044 59.2295 48.7705C57.2956 46.8365 54.6725 45.75 51.9375 45.75ZM8.625 0.375H66.375C70.9538 0.375 74.625 4.04625 74.625 8.625V41.7487C72.5625 38.4487 69.7162 35.6025 66.375 33.375V8.625H8.625V66.375H27.1875C28.4662 69.4687 30.3225 72.2325 32.5913 74.625H8.625C4.04625 74.625 0.375 70.9537 0.375 66.375V8.625C0.375 4.04625 4.04625 0.375 8.625 0.375ZM16.875 16.875H58.125V25.125H16.875V16.875ZM16.875 33.375H37.6237C34.3237 35.4375 31.4775 38.2837 29.25 41.625H16.875V33.375ZM16.875 49.875H25.8263C25.3725 51.9375 25.125 54 25.125 56.0625V58.125H16.875V49.875Z" fill="#52B788"/>
</svg>
