<svg width="25" height="26" viewBox="0 0 25 26" fill="none" xmlns="http://www.w3.org/2000/svg">
<path d="M24.9998 23.1911L19.1738 17.3351C20.6422 15.4197 21.4192 13.0638 21.3785 10.6506C21.3377 8.2374 20.4816 5.90904 18.9493 4.04432C17.417 2.1796 15.2988 0.888268 12.9393 0.38044C10.5798 -0.127388 8.1179 0.178171 5.95415 1.2474C3.7904 2.31663 2.05215 4.08661 1.02222 6.26934C-0.00771368 8.45207 -0.268705 10.9191 0.281706 13.269C0.832116 15.6189 2.16154 17.7134 4.05366 19.2118C5.94578 20.7101 8.28925 21.524 10.7028 21.5211C13.1339 21.5232 15.4922 20.6913 17.3838 19.1641L23.1948 25.0051L24.9998 23.1911ZM10.6998 19.3701C8.99562 19.3788 7.32724 18.8815 5.90605 17.941C4.48486 17.0006 3.37483 15.6594 2.71664 14.0875C2.05844 12.5155 1.8817 10.7836 2.20882 9.11111C2.53594 7.43863 3.35218 5.90089 4.55412 4.69278C5.75606 3.48466 7.28959 2.66054 8.96038 2.32486C10.6312 1.98917 12.364 2.15703 13.9393 2.80716C15.5146 3.45729 16.8614 4.56043 17.8091 5.97678C18.7568 7.39313 19.2627 9.05894 19.2628 10.7631C19.2673 13.0386 18.3682 15.2228 16.7631 16.8358C15.1581 18.4488 12.9783 19.3585 10.7028 19.3651L10.6998 19.3701Z" fill="#52B788"/>
</svg>
