<svg width="44" height="44" viewBox="0 0 44 44" fill="none" xmlns="http://www.w3.org/2000/svg">
<circle cx="22" cy="22" r="22" fill="#FDAB29"/>
<path d="M21.9997 35.1921C28.8038 35.1921 34.3197 32.4341 34.3197 29.0321C34.3197 25.63 28.8038 22.8721 21.9997 22.8721C15.1955 22.8721 9.67969 25.63 9.67969 29.0321C9.67969 32.4341 15.1955 35.1921 21.9997 35.1921Z" fill="white"/>
<path d="M22.0001 34.7535C28.5613 34.7535 33.8801 32.1925 33.8801 29.0335C33.8801 25.8744 28.5613 23.3135 22.0001 23.3135C15.439 23.3135 10.1201 25.8744 10.1201 29.0335C10.1201 32.1925 15.439 34.7535 22.0001 34.7535Z" fill="white" stroke="#FDAB29"/>
<path d="M22.0002 26.393C26.8603 26.393 30.8002 22.4531 30.8002 17.593C30.8002 12.7329 26.8603 8.79297 22.0002 8.79297C17.1401 8.79297 13.2002 12.7329 13.2002 17.593C13.2002 22.4531 17.1401 26.393 22.0002 26.393Z" fill="white"/>
<path d="M22.0006 25.9544C26.6177 25.9544 30.3606 22.2115 30.3606 17.5944C30.3606 12.9773 26.6177 9.23438 22.0006 9.23438C17.3835 9.23438 13.6406 12.9773 13.6406 17.5944C13.6406 22.2115 17.3835 25.9544 22.0006 25.9544Z" fill="white" stroke="#FDAB29"/>
</svg>
