<svg width="50" height="50" viewBox="0 0 50 50" fill="none" xmlns="http://www.w3.org/2000/svg">
<circle cx="25" cy="25" r="25" fill="#FDAB29"/>
<path d="M25 40C32.732 40 39 36.866 39 33C39 29.134 32.732 26 25 26C17.268 26 11 29.134 11 33C11 36.866 17.268 40 25 40Z" fill="white"/>
<path d="M25 39.5C32.4558 39.5 38.5 36.5899 38.5 33C38.5 29.4101 32.4558 26.5 25 26.5C17.5442 26.5 11.5 29.4101 11.5 33C11.5 36.5899 17.5442 39.5 25 39.5Z" fill="white" stroke="#FDAB29"/>
<path d="M25 30C30.5228 30 35 25.5228 35 20C35 14.4772 30.5228 10 25 10C19.4772 10 15 14.4772 15 20C15 25.5228 19.4772 30 25 30Z" fill="white"/>
<path d="M25 29.5C30.2467 29.5 34.5 25.2467 34.5 20C34.5 14.7533 30.2467 10.5 25 10.5C19.7533 10.5 15.5 14.7533 15.5 20C15.5 25.2467 19.7533 29.5 25 29.5Z" fill="white" stroke="#FDAB29"/>
</svg>
