<svg width="90" height="90" viewBox="0 0 90 90" fill="none" xmlns="http://www.w3.org/2000/svg">
<circle cx="45" cy="45" r="45" fill="white"/>
<path d="M26.6667 59.9992C36.976 59.9992 45.3333 55.8205 45.3333 50.6659C45.3333 45.5112 36.976 41.3325 26.6667 41.3325C16.3574 41.3325 8 45.5112 8 50.6659C8 55.8205 16.3574 59.9992 26.6667 59.9992Z" fill="#FDAB29"/>
<path d="M26.666 59.3324C36.6071 59.3324 44.666 55.4522 44.666 50.6657C44.666 45.8792 36.6071 41.999 26.666 41.999C16.7249 41.999 8.66602 45.8792 8.66602 50.6657C8.66602 55.4522 16.7249 59.3324 26.666 59.3324Z" stroke="white"/>
<path d="M26.6673 46.6667C34.0311 46.6667 40.0006 40.6971 40.0006 33.3333C40.0006 25.9695 34.0311 20 26.6673 20C19.3035 20 13.334 25.9695 13.334 33.3333C13.334 40.6971 19.3035 46.6667 26.6673 46.6667Z" fill="#FDAB29"/>
<path d="M26.6667 45.9998C33.6623 45.9998 39.3333 40.3288 39.3333 33.3332C39.3333 26.3376 33.6623 20.6665 26.6667 20.6665C19.6711 20.6665 14 26.3376 14 33.3332C14 40.3288 19.6711 45.9998 26.6667 45.9998Z" stroke="white"/>
<path d="M63.6667 58.9992C73.976 58.9992 82.3333 54.8205 82.3333 49.6659C82.3333 44.5112 73.976 40.3325 63.6667 40.3325C53.3574 40.3325 45 44.5112 45 49.6659C45 54.8205 53.3574 58.9992 63.6667 58.9992Z" fill="#FDAB29"/>
<path d="M63.666 58.3324C73.6071 58.3324 81.666 54.4522 81.666 49.6657C81.666 44.8792 73.6071 40.999 63.666 40.999C53.7249 40.999 45.666 44.8792 45.666 49.6657C45.666 54.4522 53.7249 58.3324 63.666 58.3324Z" stroke="white"/>
<path d="M63.6673 45.6667C71.0311 45.6667 77.0006 39.6971 77.0006 32.3333C77.0006 24.9695 71.0311 19 63.6673 19C56.3035 19 50.334 24.9695 50.334 32.3333C50.334 39.6971 56.3035 45.6667 63.6673 45.6667Z" fill="#FDAB29"/>
<path d="M63.6667 44.9998C70.6623 44.9998 76.3333 39.3288 76.3333 32.3332C76.3333 25.3376 70.6623 19.6665 63.6667 19.6665C56.6711 19.6665 51 25.3376 51 32.3332C51 39.3288 56.6711 44.9998 63.6667 44.9998Z" stroke="white"/>
<path d="M44.6667 75.9992C54.976 75.9992 63.3333 71.8205 63.3333 66.6659C63.3333 61.5112 54.976 57.3325 44.6667 57.3325C34.3574 57.3325 26 61.5112 26 66.6659C26 71.8205 34.3574 75.9992 44.6667 75.9992Z" fill="#FDAB29"/>
<path d="M44.666 75.3324C54.6071 75.3324 62.666 71.4522 62.666 66.6657C62.666 61.8792 54.6071 57.999 44.666 57.999C34.7249 57.999 26.666 61.8792 26.666 66.6657C26.666 71.4522 34.7249 75.3324 44.666 75.3324Z" stroke="white"/>
<path d="M44.6673 62.6667C52.0311 62.6667 58.0006 56.6971 58.0006 49.3333C58.0006 41.9695 52.0311 36 44.6673 36C37.3035 36 31.334 41.9695 31.334 49.3333C31.334 56.6971 37.3035 62.6667 44.6673 62.6667Z" fill="#FDAB29"/>
<path d="M44.6667 61.9998C51.6623 61.9998 57.3333 56.3288 57.3333 49.3332C57.3333 42.3376 51.6623 36.6665 44.6667 36.6665C37.6711 36.6665 32 42.3376 32 49.3332C32 56.3288 37.6711 61.9998 44.6667 61.9998Z" stroke="white"/>
</svg>
