<svg width="90" height="90" viewBox="0 0 90 90" fill="none" xmlns="http://www.w3.org/2000/svg">
<circle cx="45" cy="45" r="45" fill="white"/>
<rect x="43.655" y="6.19934" width="21.6371" height="31.0387" rx="0.85" transform="rotate(25 43.655 6.19934)" fill="#FDAB29" stroke="white" stroke-width="0.3"/>
<rect x="20.25" y="28.9919" width="49.1239" height="49.1239" rx="1.75" fill="#FDAB29" stroke="white" stroke-width="0.5"/>
<path d="M44.81 41.1474C47.2639 41.1471 49.6628 41.8746 51.7033 43.2378C53.7437 44.601 55.3342 46.5386 56.2734 48.8057C57.2126 51.0728 57.4585 53.5674 56.9799 55.9742C56.5012 58.381 55.3197 60.5919 53.5846 62.3271C51.8494 64.0624 49.6387 65.2441 47.232 65.723C44.8252 66.2018 42.3305 65.9561 40.0634 65.0171C37.7962 64.0781 35.8584 62.4878 34.4951 60.4475C33.1317 58.4071 32.404 56.0083 32.404 53.5544C32.4083 50.2654 33.7167 47.1122 36.0423 44.7864C38.3679 42.4606 41.521 41.1519 44.81 41.1474M44.81 37.0131C41.5385 37.0136 38.3407 37.984 35.6207 39.8019C32.9008 41.6197 30.781 44.2033 29.5294 47.2258C28.2778 50.2484 27.9505 53.5742 28.589 56.7828C29.2275 59.9913 30.803 62.9385 33.1165 65.2516C35.4299 67.5647 38.3773 69.1399 41.5859 69.778C44.7945 70.4161 48.1203 70.0884 51.1427 68.8363C54.1651 67.5843 56.7484 65.4642 58.5659 62.744C60.3834 60.0239 61.3534 56.8259 61.3534 53.5544C61.3536 51.3819 60.9258 49.2307 60.0944 47.2237C59.263 45.2166 58.0444 43.3929 56.5082 41.8569C54.9719 40.3208 53.1481 39.1024 51.1409 38.2713C49.1337 37.4402 46.9825 37.0127 44.81 37.0131" fill="white"/>
<path d="M45.6978 46.4714V53.8238C45.6978 54.0627 45.6029 54.2919 45.4339 54.4609C45.2649 54.6298 45.0358 54.7247 44.7968 54.7247C44.5579 54.7247 44.3287 54.6298 44.1598 54.4609C43.9908 54.2919 43.8959 54.0627 43.8959 53.8238V46.4714C43.8959 46.2324 43.9908 46.0033 44.1598 45.8343C44.3287 45.6654 44.5579 45.5704 44.7968 45.5704C45.0358 45.5704 45.2649 45.6654 45.4339 45.8343C45.6029 46.0033 45.6978 46.2324 45.6978 46.4714" fill="white"/>
<path d="M52.1492 54.7354H44.7968C44.5579 54.7354 44.3287 54.6405 44.1598 54.4715C43.9908 54.3025 43.8959 54.0734 43.8959 53.8344C43.8959 53.5955 43.9908 53.3663 44.1598 53.1974C44.3287 53.0284 44.5579 52.9335 44.7968 52.9335H52.1492C52.3882 52.9335 52.6173 53.0284 52.7863 53.1974C52.9553 53.3663 53.0502 53.5955 53.0502 53.8344C53.0502 54.0734 52.9553 54.3025 52.7863 54.4715C52.6173 54.6405 52.3882 54.7354 52.1492 54.7354" fill="white"/>
<path d="M46.8465 25.8816C49.9278 27.3184 53.008 27.2342 53.7264 25.6936C54.4448 24.153 52.5293 21.7393 49.4481 20.3025C46.3669 18.8657 43.2866 18.9498 42.5682 20.4905C41.8498 22.0311 43.7653 24.4448 46.8465 25.8816Z" fill="white"/>
<path d="M46.9394 25.6844C49.9106 27.0699 52.86 27.0333 53.5271 25.6028C54.1942 24.1722 52.3264 21.8893 49.3552 20.5038C46.384 19.1183 43.4346 19.1549 42.7675 20.5855C42.1004 22.016 43.9682 24.2989 46.9394 25.6844Z" fill="white" stroke="#FDAB29" stroke-width="0.3"/>
<path d="M48.7052 21.8945C50.9061 22.9208 53.5222 21.9686 54.5485 19.7677C55.5748 17.5668 54.6226 14.9507 52.4217 13.9244C50.2208 12.8981 47.6047 13.8503 46.5784 16.0512C45.5521 18.252 46.5043 20.8682 48.7052 21.8945Z" fill="white"/>
<path d="M48.7986 21.6973C50.8894 22.6723 53.3747 21.7677 54.3497 19.6768C55.3247 17.586 54.4201 15.1007 52.3293 14.1257C50.2384 13.1507 47.7531 14.0553 46.7781 16.1462C45.8031 18.237 46.7077 20.7223 48.7986 21.6973Z" fill="white" stroke="#FDAB29" stroke-width="0.3"/>
</svg>
