<svg width="29" height="23" viewBox="0 0 29 23" fill="none" xmlns="http://www.w3.org/2000/svg">
<path d="M28.3103 4.41382H1V22.3362H28.3103V4.41382Z" fill="white"/>
<path d="M27.6708 5.05383H1.64062V21.6961H27.6708V5.05383Z" stroke="#FDAB29" stroke-width="1.5"/>
<path d="M28.3103 1H1V3.56034H28.3103V1Z" fill="#FDAB29"/>
<path d="M27.457 1.85339H1.85352V2.70684H27.457V1.85339Z" stroke="#FDAB29" stroke-width="2"/>
<path d="M10.3885 1H7.82812V2.7069H10.3885V1Z" fill="white"/>
<path d="M21.4822 1H18.9219V2.7069H21.4822V1Z" fill="white"/>
<path d="M9.74697 1H8.4668V2.28017H9.74697V1Z" fill="#FDAB29"/>
<path d="M20.8427 1H19.5625V2.28017H20.8427V1Z" fill="#FDAB29"/>
<path d="M11.75 18.1193C11.108 18.1193 10.5611 17.9446 10.1094 17.5952C9.65767 17.2429 9.3125 16.733 9.07386 16.0653C8.83523 15.3949 8.71591 14.5852 8.71591 13.6364C8.71591 12.6932 8.83523 11.8878 9.07386 11.2202C9.31534 10.5497 9.66193 10.0384 10.1136 9.68608C10.5682 9.33097 11.1136 9.15341 11.75 9.15341C12.3864 9.15341 12.9304 9.33097 13.3821 9.68608C13.8366 10.0384 14.1832 10.5497 14.4219 11.2202C14.6634 11.8878 14.7841 12.6932 14.7841 13.6364C14.7841 14.5852 14.6648 15.3949 14.4261 16.0653C14.1875 16.733 13.8423 17.2429 13.3906 17.5952C12.9389 17.9446 12.392 18.1193 11.75 18.1193ZM11.75 17.1818C12.3864 17.1818 12.8807 16.875 13.233 16.2614C13.5852 15.6477 13.7614 14.7727 13.7614 13.6364C13.7614 12.8807 13.6804 12.2372 13.5185 11.706C13.3594 11.1747 13.1293 10.7699 12.8281 10.4915C12.5298 10.2131 12.1705 10.0739 11.75 10.0739C11.1193 10.0739 10.6264 10.3849 10.2713 11.0071C9.91619 11.6264 9.73864 12.5028 9.73864 13.6364C9.73864 14.392 9.81818 15.0341 9.97727 15.5625C10.1364 16.0909 10.3651 16.4929 10.6634 16.7685C10.9645 17.044 11.3267 17.1818 11.75 17.1818ZM19.4716 9.27273V18H18.4148V10.3807H18.3636L16.233 11.7955V10.7216L18.4148 9.27273H19.4716Z" fill="#FDAB29"/>
</svg>
