<svg width="50" height="50" viewBox="0 0 50 50" fill="none" xmlns="http://www.w3.org/2000/svg">
<circle cx="25" cy="25" r="25" fill="#FDAB29"/>
<path d="M15.9757 32.332C21.2985 32.332 25.6135 30.1745 25.6135 27.5131C25.6135 24.8517 21.2985 22.6942 15.9757 22.6942C10.6529 22.6942 6.33789 24.8517 6.33789 27.5131C6.33789 30.1745 10.6529 32.332 15.9757 32.332Z" fill="white"/>
<path d="M15.9775 31.9801C21.1102 31.9801 25.2711 29.9767 25.2711 27.5054C25.2711 25.0341 21.1102 23.0307 15.9775 23.0307C10.8448 23.0307 6.68396 25.0341 6.68396 27.5054C6.68396 29.9767 10.8448 31.9801 15.9775 31.9801Z" fill="white" stroke="#FDAB29"/>
<path d="M15.9759 25.4489C19.7779 25.4489 22.8601 22.3667 22.8601 18.5647C22.8601 14.7627 19.7779 11.6806 15.9759 11.6806C12.1739 11.6806 9.0918 14.7627 9.0918 18.5647C9.0918 22.3667 12.1739 25.4489 15.9759 25.4489Z" fill="white"/>
<path d="M15.9773 25.097C19.5892 25.097 22.5172 22.169 22.5172 18.5571C22.5172 14.9452 19.5892 12.0171 15.9773 12.0171C12.3654 12.0171 9.43738 14.9452 9.43738 18.5571C9.43738 22.169 12.3654 25.097 15.9773 25.097Z" fill="white" stroke="#FDAB29"/>
<path d="M34.6386 32.332C39.9614 32.332 44.2764 30.1745 44.2764 27.5131C44.2764 24.8517 39.9614 22.6942 34.6386 22.6942C29.3158 22.6942 25.0009 24.8517 25.0009 27.5131C25.0009 30.1745 29.3158 32.332 34.6386 32.332Z" fill="white"/>
<path d="M34.6405 31.9801C39.7732 31.9801 43.9341 29.9767 43.9341 27.5054C43.9341 25.0341 39.7732 23.0307 34.6405 23.0307C29.5078 23.0307 25.3469 25.0341 25.3469 27.5054C25.3469 29.9767 29.5078 31.9801 34.6405 31.9801Z" fill="white" stroke="#FDAB29"/>
<path d="M34.6389 25.4489C38.4409 25.4489 41.523 22.3667 41.523 18.5647C41.523 14.7627 38.4409 11.6806 34.6389 11.6806C30.8369 11.6806 27.7548 14.7627 27.7548 18.5647C27.7548 22.3667 30.8369 25.4489 34.6389 25.4489Z" fill="white"/>
<path d="M34.6403 25.097C38.2522 25.097 41.1802 22.169 41.1802 18.5571C41.1802 14.9452 38.2522 12.0171 34.6403 12.0171C31.0284 12.0171 28.1003 14.9452 28.1003 18.5571C28.1003 22.169 31.0284 25.097 34.6403 25.097Z" fill="white" stroke="#FDAB29"/>
<path d="M25.3048 41.6354C30.6276 41.6354 34.9426 39.4779 34.9426 36.8165C34.9426 34.1551 30.6276 31.9977 25.3048 31.9977C19.982 31.9977 15.667 34.1551 15.667 36.8165C15.667 39.4779 19.982 41.6354 25.3048 41.6354Z" fill="white"/>
<path d="M25.3066 41.2836C30.4393 41.2836 34.6002 39.2802 34.6002 36.8089C34.6002 34.3376 30.4393 32.3342 25.3066 32.3342C20.1739 32.3342 16.0131 34.3376 16.0131 36.8089C16.0131 39.2802 20.1739 41.2836 25.3066 41.2836Z" fill="white" stroke="#FDAB29"/>
<path d="M25.305 34.7523C29.107 34.7523 32.1892 31.6702 32.1892 27.8682C32.1892 24.0662 29.107 20.9841 25.305 20.9841C21.503 20.9841 18.4209 24.0662 18.4209 27.8682C18.4209 31.6702 21.503 34.7523 25.305 34.7523Z" fill="white"/>
<path d="M25.3064 34.4005C28.9183 34.4005 31.8463 31.4724 31.8463 27.8605C31.8463 24.2487 28.9183 21.3206 25.3064 21.3206C21.6945 21.3206 18.7665 24.2487 18.7665 27.8605C18.7665 31.4724 21.6945 34.4005 25.3064 34.4005Z" fill="white" stroke="#FDAB29"/>
<path d="M33.6429 39.55H29.25V36.5833H33.6429H33.8929V36.3333V32.25H37.1071V36.3333V36.5833H37.3571H41.75V39.55H37.3571H37.1071V39.8V44.75H33.8929V39.8V39.55H33.6429Z" fill="white" stroke="#FFAD45" stroke-width="0.5"/>
</svg>
