<svg width="30" height="30" viewBox="0 0 30 30" fill="none" xmlns="http://www.w3.org/2000/svg">
<circle cx="15" cy="15" r="15" fill="white"/>
<path d="M8.22833 20.4874C12.2204 20.4874 15.4567 18.8692 15.4567 16.8732C15.4567 14.8772 12.2204 13.259 8.22833 13.259C4.23624 13.259 1 14.8772 1 16.8732C1 18.8692 4.23624 20.4874 8.22833 20.4874Z" fill="#FDAB29"/>
<path d="M8.22799 20.2287C12.0775 20.2287 15.1982 18.7261 15.1982 16.8727C15.1982 15.0192 12.0775 13.5167 8.22799 13.5167C4.37847 13.5167 1.25781 15.0192 1.25781 16.8727C1.25781 18.7261 4.37847 20.2287 8.22799 20.2287Z" stroke="white"/>
<path d="M8.22755 15.3262C11.079 15.3262 13.3906 13.0146 13.3906 10.1631C13.3906 7.3116 11.079 5 8.22755 5C5.37605 5 3.06445 7.3116 3.06445 10.1631C3.06445 13.0146 5.37605 15.3262 8.22755 15.3262Z" fill="#FDAB29"/>
<path d="M8.22721 15.0675C10.9361 15.0675 13.1321 12.8715 13.1321 10.1626C13.1321 7.45365 10.9361 5.25763 8.22721 5.25763C5.51828 5.25763 3.32227 7.45365 3.32227 10.1626C3.32227 12.8715 5.51828 15.0675 8.22721 15.0675Z" stroke="white"/>
<path d="M22.2283 20.4874C26.2204 20.4874 29.4567 18.8692 29.4567 16.8732C29.4567 14.8772 26.2204 13.259 22.2283 13.259C18.2362 13.259 15 14.8772 15 16.8732C15 18.8692 18.2362 20.4874 22.2283 20.4874Z" fill="#FDAB29"/>
<path d="M22.228 20.2287C26.0775 20.2287 29.1982 18.7261 29.1982 16.8727C29.1982 15.0192 26.0775 13.5167 22.228 13.5167C18.3785 13.5167 15.2578 15.0192 15.2578 16.8727C15.2578 18.7261 18.3785 20.2287 22.228 20.2287Z" stroke="white"/>
<path d="M22.2275 15.3262C25.079 15.3262 27.3906 13.0146 27.3906 10.1631C27.3906 7.3116 25.079 5 22.2275 5C19.376 5 17.0645 7.3116 17.0645 10.1631C17.0645 13.0146 19.376 15.3262 22.2275 15.3262Z" fill="#FDAB29"/>
<path d="M22.2272 15.0675C24.9361 15.0675 27.1321 12.8715 27.1321 10.1626C27.1321 7.45365 24.9361 5.25763 22.2272 5.25763C19.5183 5.25763 17.3223 7.45365 17.3223 10.1626C17.3223 12.8715 19.5183 15.0675 22.2272 15.0675Z" stroke="white"/>
<path d="M15.2283 27.4874C19.2204 27.4874 22.4567 25.8692 22.4567 23.8732C22.4567 21.8772 19.2204 20.259 15.2283 20.259C11.2362 20.259 8 21.8772 8 23.8732C8 25.8692 11.2362 27.4874 15.2283 27.4874Z" fill="#FDAB29"/>
<path d="M15.228 27.2287C19.0775 27.2287 22.1982 25.7261 22.1982 23.8727C22.1982 22.0192 19.0775 20.5167 15.228 20.5167C11.3785 20.5167 8.25781 22.0192 8.25781 23.8727C8.25781 25.7261 11.3785 27.2287 15.228 27.2287Z" stroke="white"/>
<path d="M15.2275 22.3262C18.079 22.3262 20.3906 20.0146 20.3906 17.1631C20.3906 14.3116 18.079 12 15.2275 12C12.376 12 10.0645 14.3116 10.0645 17.1631C10.0645 20.0146 12.376 22.3262 15.2275 22.3262Z" fill="#FDAB29"/>
<path d="M15.2272 22.0675C17.9361 22.0675 20.1321 19.8715 20.1321 17.1626C20.1321 14.4536 17.9361 12.2576 15.2272 12.2576C12.5183 12.2576 10.3223 14.4536 10.3223 17.1626C10.3223 19.8715 12.5183 22.0675 15.2272 22.0675Z" stroke="white"/>
<path d="M20.5 23.95H18.25V22.5833H20.5H20.75V22.3333V20.25H22.25V22.3333V22.5833H22.5H24.75V23.95H22.5H22.25V24.2V26.75H20.75V24.2V23.95H20.5Z" fill="#FFAD45" stroke="white" stroke-width="0.5"/>
</svg>
