<svg width="60" height="60" viewBox="0 0 60 60" fill="none" xmlns="http://www.w3.org/2000/svg">
<path d="M47.879 39.7002C47.879 41.9893 46.0104 44.1963 42.6814 45.8607C39.3823 47.5103 34.7897 48.545 29.6895 48.545C24.5893 48.545 19.9967 47.5103 16.6976 45.8607C13.3687 44.1963 11.5 41.9893 11.5 39.7002C11.5 37.4112 13.3687 35.2042 16.6976 33.5397C19.9967 31.8902 24.5893 30.8555 29.6895 30.8555C34.7897 30.8555 39.3823 31.8902 42.6814 33.5397C46.0104 35.2042 47.879 37.4112 47.879 39.7002Z" fill="white" stroke="#FFAE41"/>
<path d="M42.5398 22.3496C42.5398 29.4463 36.7868 35.1993 29.6902 35.1993C22.5935 35.1993 16.8405 29.4463 16.8405 22.3496C16.8405 15.253 22.5935 9.5 29.6902 9.5C36.7868 9.5 42.5398 15.253 42.5398 22.3496Z" fill="white" stroke="#FFAE41"/>
<path d="M41.0714 41.2293H35.25V37.196H41.0714H41.3214V36.946V31.5293H45.6786V36.946V37.196H45.9286H51.75V41.2293H45.9286H45.6786V41.4793V48.0293H41.3214V41.4793V41.2293H41.0714Z" fill="white" stroke="#FDAB29" stroke-width="0.5"/>
<path d="M30 59C46.0163 59 59 46.0163 59 30C59 13.9837 46.0163 1 30 1C13.9837 1 1 13.9837 1 30C1 46.0163 13.9837 59 30 59Z" stroke="white" stroke-width="2"/>
</svg>
