<svg width="50" height="50" viewBox="0 0 50 50" fill="none" xmlns="http://www.w3.org/2000/svg">
<circle cx="25" cy="25" r="25" fill="#FDAB29"/>
<path d="M24.8242 41.9902C33.5637 41.9902 40.6484 38.579 40.6484 34.3711C40.6484 30.1632 33.5637 26.7521 24.8242 26.7521C16.0847 26.7521 9 30.1632 9 34.3711C9 38.579 16.0847 41.9902 24.8242 41.9902Z" fill="white" stroke="#FDAB29"/>
<path d="M24.825 30.2711C30.975 30.2711 35.9606 25.2856 35.9606 19.1356C35.9606 12.9856 30.975 8 24.825 8C18.675 8 13.6895 12.9856 13.6895 19.1356C13.6895 25.2856 18.675 30.2711 24.825 30.2711Z" fill="white" stroke="#FDAB29"/>
<path d="M33.3571 35.4258H28.25V31.9258H33.3571H33.6071V31.6758V26.9258H37.3929V31.6758V31.9258H37.6429H42.75V35.4258H37.6429H37.3929V35.6758V41.4258H33.6071V35.6758V35.4258H33.3571Z" fill="white" stroke="#FDAB29" stroke-width="0.5"/>
</svg>
