<svg width="90" height="90" viewBox="0 0 90 90" fill="none" xmlns="http://www.w3.org/2000/svg">
<circle cx="45" cy="45" r="45" fill="white"/>
<path d="M26.6667 59.9994C36.976 59.9994 45.3333 55.8207 45.3333 50.666C45.3333 45.5114 36.976 41.3327 26.6667 41.3327C16.3574 41.3327 8 45.5114 8 50.666C8 55.8207 16.3574 59.9994 26.6667 59.9994Z" fill="#FDAB29"/>
<path d="M26.6667 59.3327C36.6078 59.3327 44.6667 55.4525 44.6667 50.6661C44.6667 45.8796 36.6078 41.9994 26.6667 41.9994C16.7256 41.9994 8.66669 45.8796 8.66669 50.6661C8.66669 55.4525 16.7256 59.3327 26.6667 59.3327Z" stroke="white"/>
<path d="M26.6666 46.6667C34.0304 46.6667 40 40.6971 40 33.3333C40 25.9695 34.0304 20 26.6666 20C19.3028 20 13.3333 25.9695 13.3333 33.3333C13.3333 40.6971 19.3028 46.6667 26.6666 46.6667Z" fill="#FDAB29"/>
<path d="M26.6666 46C33.6622 46 39.3333 40.329 39.3333 33.3334C39.3333 26.3377 33.6622 20.6667 26.6666 20.6667C19.671 20.6667 13.9999 26.3377 13.9999 33.3334C13.9999 40.329 19.671 46 26.6666 46Z" stroke="white"/>
<path d="M63.6667 58.9994C73.976 58.9994 82.3333 54.8207 82.3333 49.666C82.3333 44.5114 73.976 40.3327 63.6667 40.3327C53.3574 40.3327 45 44.5114 45 49.666C45 54.8207 53.3574 58.9994 63.6667 58.9994Z" fill="#FDAB29"/>
<path d="M63.6667 58.3327C73.6078 58.3327 81.6667 54.4525 81.6667 49.6661C81.6667 44.8796 73.6078 40.9994 63.6667 40.9994C53.7256 40.9994 45.6667 44.8796 45.6667 49.6661C45.6667 54.4525 53.7256 58.3327 63.6667 58.3327Z" stroke="white"/>
<path d="M63.6666 45.6667C71.0304 45.6667 77 39.6971 77 32.3333C77 24.9695 71.0304 19 63.6666 19C56.3028 19 50.3333 24.9695 50.3333 32.3333C50.3333 39.6971 56.3028 45.6667 63.6666 45.6667Z" fill="#FDAB29"/>
<path d="M63.6666 45C70.6622 45 76.3333 39.329 76.3333 32.3334C76.3333 25.3377 70.6622 19.6667 63.6666 19.6667C56.671 19.6667 50.9999 25.3377 50.9999 32.3334C50.9999 39.329 56.671 45 63.6666 45Z" stroke="white"/>
<path d="M44.6667 75.9994C54.976 75.9994 63.3333 71.8207 63.3333 66.666C63.3333 61.5114 54.976 57.3327 44.6667 57.3327C34.3574 57.3327 26 61.5114 26 66.666C26 71.8207 34.3574 75.9994 44.6667 75.9994Z" fill="#FDAB29"/>
<path d="M44.6667 75.3327C54.6078 75.3327 62.6667 71.4525 62.6667 66.6661C62.6667 61.8796 54.6078 57.9994 44.6667 57.9994C34.7256 57.9994 26.6667 61.8796 26.6667 66.6661C26.6667 71.4525 34.7256 75.3327 44.6667 75.3327Z" stroke="white"/>
<path d="M44.6666 62.6667C52.0304 62.6667 58 56.6971 58 49.3333C58 41.9695 52.0304 36 44.6666 36C37.3028 36 31.3333 41.9695 31.3333 49.3333C31.3333 56.6971 37.3028 62.6667 44.6666 62.6667Z" fill="#FDAB29"/>
<path d="M44.6666 62C51.6622 62 57.3333 56.329 57.3333 49.3334C57.3333 42.3377 51.6622 36.6667 44.6666 36.6667C37.671 36.6667 31.9999 42.3377 31.9999 49.3334C31.9999 56.329 37.671 62 44.6666 62Z" stroke="white"/>
</svg>
