<svg width="54" height="55" viewBox="0 0 54 55" fill="none" xmlns="http://www.w3.org/2000/svg">
<circle cx="27" cy="27.5" r="27" fill="#F3633D"/>
<path d="M25.989 35.5384C24.9151 35.5384 24.0329 34.6903 23.9906 33.6172L23.2226 14.1504C23.1779 13.0158 24.0856 12.0715 25.2211 12.0715H28.7436C29.8791 12.0715 30.7868 13.0158 30.742 14.1504L29.9741 33.6172C29.9318 34.6903 29.0496 35.5384 27.9757 35.5384H25.989ZM25.4183 45.8601C24.3138 45.8601 23.4183 44.9647 23.4183 43.8601V41.2413C23.4183 40.1367 24.3138 39.2413 25.4183 39.2413H28.5463C29.6509 39.2413 30.5463 40.1367 30.5463 41.2413V43.8601C30.5463 44.9647 29.6509 45.8601 28.5463 45.8601H25.4183Z" fill="white"/>
</svg>
