<svg width="25" height="25" viewBox="0 0 25 25" fill="none" xmlns="http://www.w3.org/2000/svg">
<circle cx="12.5" cy="12.5" r="12.5" fill="#F3633D"/>
<path d="M12.4934 16.2215C11.7394 16.2215 11.1199 15.626 11.0902 14.8725L10.7849 7.13437C10.7467 6.16439 11.5227 5.35718 12.4934 5.35718C13.4641 5.35718 14.2401 6.16439 14.2019 7.13437L13.8966 14.8725C13.8669 15.626 13.2475 16.2215 12.4934 16.2215ZM12.3756 21C11.5294 21 10.8434 20.3141 10.8434 19.4679C10.8434 18.6217 11.5294 17.9358 12.3756 17.9358H12.6113C13.4575 17.9358 14.1434 18.6217 14.1434 19.4679C14.1434 20.3141 13.4575 21 12.6113 21H12.3756Z" fill="white"/>
</svg>
