<svg width="16" height="14" viewBox="0 0 16 14" fill="none" xmlns="http://www.w3.org/2000/svg">
<path d="M13.16 0.500713H13.1601C13.422 0.500697 13.6794 0.569265 13.9065 0.699595C14.1337 0.829926 14.3228 1.01748 14.4551 1.24358C14.5873 1.46969 14.658 1.72648 14.6601 1.98839C14.6623 2.2503 14.5958 2.50821 14.4673 2.73646L14.4673 2.73656L8.88729 12.6555C8.88728 12.6555 8.88727 12.6555 8.88726 12.6556C8.75676 12.8875 8.56692 13.0805 8.33721 13.2148C8.10748 13.3491 7.84616 13.4199 7.58004 13.4199C7.31392 13.4199 7.0526 13.3491 6.82287 13.2148C6.59317 13.0805 6.40334 12.8875 6.27284 12.6556C6.27282 12.6556 6.27281 12.6555 6.27279 12.6555L0.693041 2.73496C0.693015 2.73492 0.69299 2.73487 0.692965 2.73483C0.56491 2.50665 0.498766 2.24895 0.501104 1.98731C0.503444 1.72562 0.574209 1.46909 0.706372 1.2432C0.838533 1.01732 1.02749 0.82995 1.25448 0.699697C1.48147 0.569445 1.73859 0.500845 2.00029 0.500713L13.16 0.500713Z" fill="white" stroke="white"/>
</svg>
