<svg width="30" height="32" viewBox="0 0 30 32" fill="none" xmlns="http://www.w3.org/2000/svg">
<circle cx="15" cy="17" r="15" fill="#FDAB29"/>
<path d="M13.702 21.27C13.702 20.6393 13.7607 20.0453 13.878 19.488C14.01 18.9307 14.2373 18.4027 14.56 17.904C14.8973 17.3907 15.374 16.9213 15.99 16.496C16.518 16.1293 16.9433 15.792 17.266 15.484C17.6033 15.176 17.8453 14.8753 17.992 14.582C18.1387 14.2887 18.212 13.988 18.212 13.68C18.212 13.0787 17.9333 12.6387 17.376 12.36C16.8333 12.0667 15.9753 11.92 14.802 11.92C13.9953 11.92 13.218 11.986 12.47 12.118C11.722 12.2353 10.93 12.4333 10.094 12.712L9.566 10.556C10.3873 10.292 11.2747 10.0867 12.228 9.94C13.196 9.79333 14.164 9.72 15.132 9.72C18.872 9.72 20.742 10.93 20.742 13.35C20.742 13.8927 20.6467 14.3987 20.456 14.868C20.2653 15.3227 19.9573 15.77 19.532 16.21C19.1067 16.65 18.5493 17.1047 17.86 17.574C17.4053 17.882 17.0533 18.234 16.804 18.63C16.5547 19.026 16.3787 19.4513 16.276 19.906C16.188 20.346 16.1367 20.8007 16.122 21.27H13.702ZM13.482 26V23.14H16.342V26H13.482Z" fill="white"/>
</svg>
