<svg width="152" height="47" viewBox="0 0 152 47" fill="none" xmlns="http://www.w3.org/2000/svg">
<path d="M0.23625 36V0.959999H5.66025V31.2H24.7163V36H0.23625ZM54.3364 36.48C50.3684 36.48 47.2964 35.36 45.1204 33.12C42.9444 30.848 41.8564 27.648 41.8564 23.52C41.8564 19.392 42.9444 16.208 45.1204 13.968C47.2964 11.696 50.3684 10.56 54.3364 10.56C58.3044 10.56 61.3764 11.696 63.5524 13.968C65.7284 16.208 66.8164 19.392 66.8164 23.52C66.8164 27.648 65.7284 30.848 63.5524 33.12C61.3764 35.36 58.3044 36.48 54.3364 36.48ZM54.3364 32.16C56.7044 32.16 58.5124 31.424 59.7604 29.952C61.0084 28.48 61.6324 26.336 61.6324 23.52C61.6324 20.704 61.0084 18.56 59.7604 17.088C58.5124 15.616 56.7044 14.88 54.3364 14.88C52.0004 14.88 50.1924 15.616 48.9124 17.088C47.6644 18.56 47.0404 20.704 47.0404 23.52C47.0404 26.336 47.6644 28.48 48.9124 29.952C50.1924 31.424 52.0004 32.16 54.3364 32.16ZM95.181 46.56C93.229 46.56 91.373 46.368 89.613 45.984C87.853 45.6 86.381 45.056 85.197 44.352L85.917 40.128C87.069 40.8 88.413 41.312 89.949 41.664C91.517 42.048 93.101 42.24 94.701 42.24C97.613 42.24 99.693 41.552 100.941 40.176C102.189 38.8 102.813 36.528 102.813 33.36V31.776H102.717C101.821 32.832 100.669 33.648 99.261 34.224C97.853 34.768 96.317 35.04 94.653 35.04C91.325 35.04 88.717 33.968 86.829 31.824C84.941 29.648 83.997 26.64 83.997 22.8C83.997 18.96 84.941 15.968 86.829 13.824C88.717 11.648 91.325 10.56 94.653 10.56C96.349 10.56 97.917 10.848 99.357 11.424C100.829 12 102.013 12.8 102.909 13.824H103.005L103.053 11.04H107.997V33.36C107.997 37.872 106.957 41.2 104.877 43.344C102.797 45.488 99.565 46.56 95.181 46.56ZM95.853 30.72C97.197 30.72 98.381 30.48 99.405 30C100.461 29.52 101.293 28.864 101.901 28.032C102.509 27.2 102.813 26.256 102.813 25.2V20.4C102.813 19.344 102.509 18.4 101.901 17.568C101.293 16.736 100.461 16.08 99.405 15.6C98.381 15.12 97.197 14.88 95.853 14.88C93.709 14.88 92.045 15.568 90.861 16.944C89.677 18.32 89.085 20.272 89.085 22.8C89.085 25.328 89.677 27.28 90.861 28.656C92.045 30.032 93.709 30.72 95.853 30.72ZM139.508 36.48C135.54 36.48 132.468 35.36 130.292 33.12C128.116 30.848 127.028 27.648 127.028 23.52C127.028 19.392 128.116 16.208 130.292 13.968C132.468 11.696 135.54 10.56 139.508 10.56C143.476 10.56 146.548 11.696 148.724 13.968C150.9 16.208 151.988 19.392 151.988 23.52C151.988 27.648 150.9 30.848 148.724 33.12C146.548 35.36 143.476 36.48 139.508 36.48ZM139.508 32.16C141.876 32.16 143.684 31.424 144.932 29.952C146.18 28.48 146.804 26.336 146.804 23.52C146.804 20.704 146.18 18.56 144.932 17.088C143.684 15.616 141.876 14.88 139.508 14.88C137.172 14.88 135.364 15.616 134.084 17.088C132.836 18.56 132.212 20.704 132.212 23.52C132.212 26.336 132.836 28.48 134.084 29.952C135.364 31.424 137.172 32.16 139.508 32.16Z" fill="#FD9670"/>
</svg>
