<svg width="50" height="50" viewBox="0 0 50 50" fill="none" xmlns="http://www.w3.org/2000/svg">
<circle cx="25" cy="25" r="25" fill="#FDAB29"/>
<rect x="24.3792" y="3.19934" width="12.0779" height="17.3827" rx="0.85" transform="rotate(25 24.3792 3.19934)" fill="white" stroke="#FDAB29" stroke-width="0.3"/>
<rect x="11.25" y="16.084" width="27.5" height="27.5" rx="1.75" fill="white" stroke="#FDAB29" stroke-width="0.5"/>
<path d="M24.9981 22.8327C26.3827 22.8326 27.7363 23.2431 28.8876 24.0122C30.0389 24.7814 30.9363 25.8747 31.4663 27.1539C31.9962 28.4331 32.135 29.8407 31.8649 31.1987C31.5949 32.5567 30.9282 33.8042 29.9491 34.7833C28.9701 35.7624 27.7227 36.4292 26.3647 36.6994C25.0067 36.9695 23.5991 36.8309 22.3199 36.3011C21.0406 35.7713 19.9473 34.874 19.178 33.7227C18.4087 32.5715 17.9981 31.2179 17.9981 29.8333C18.0006 27.9775 18.7388 26.1984 20.051 24.886C21.3632 23.5737 23.1423 22.8353 24.9981 22.8327ZM24.9981 20.5C23.1522 20.5002 21.3478 21.0478 19.8131 22.0735C18.2784 23.0992 17.0824 24.557 16.3761 26.2625C15.6699 27.9679 15.4852 29.8445 15.8455 31.6549C16.2058 33.4653 17.0948 35.1283 18.4001 36.4334C19.7055 37.7386 21.3685 38.6274 23.179 38.9874C24.9894 39.3474 26.866 39.1625 28.5713 38.4561C30.2767 37.7496 31.7343 36.5534 32.7598 35.0185C33.7853 33.4837 34.3327 31.6792 34.3327 29.8333C34.3328 28.6075 34.0914 27.3937 33.6223 26.2612C33.1532 25.1288 32.4656 24.0998 31.5988 23.2331C30.7319 22.3663 29.7029 21.6789 28.5703 21.2099C27.4378 20.741 26.2239 20.4998 24.9981 20.5Z" fill="#FDAB29"/>
<path d="M25.4991 25.839V29.9876C25.4991 30.1224 25.4456 30.2517 25.3502 30.3471C25.2549 30.4424 25.1256 30.496 24.9908 30.496C24.856 30.496 24.7267 30.4424 24.6313 30.3471C24.536 30.2517 24.4824 30.1224 24.4824 29.9876V25.839C24.4824 25.7042 24.536 25.5749 24.6313 25.4796C24.7267 25.3843 24.856 25.3307 24.9908 25.3307C25.1256 25.3307 25.2549 25.3843 25.3502 25.4796C25.4456 25.5749 25.4991 25.7042 25.4991 25.839Z" fill="#FDAB29"/>
<path d="M29.1393 30.4991H24.9908C24.856 30.4991 24.7267 30.4456 24.6313 30.3502C24.536 30.2549 24.4824 30.1256 24.4824 29.9908C24.4824 29.856 24.536 29.7267 24.6313 29.6313C24.7267 29.536 24.856 29.4824 24.9908 29.4824H29.1393C29.2742 29.4824 29.4035 29.536 29.4988 29.6313C29.5941 29.7267 29.6477 29.856 29.6477 29.9908C29.6477 30.1256 29.5941 30.2549 29.4988 30.3502C29.4035 30.4456 29.2742 30.4991 29.1393 30.4991Z" fill="#FDAB29"/>
<path d="M26.1468 14.2132C27.8854 15.0239 29.6234 14.9764 30.0288 14.1071C30.4341 13.2378 29.3533 11.8759 27.6148 11.0652C25.8762 10.2545 24.1382 10.302 23.7328 11.1713C23.3275 12.0406 24.4083 13.4025 26.1468 14.2132Z" fill="#FDAB29"/>
<path d="M26.1998 14.1C27.8763 14.8817 29.5405 14.8611 29.9169 14.0539C30.2933 13.2467 29.2394 11.9586 27.5629 11.1768C25.8864 10.3951 24.2222 10.4157 23.8458 11.2229C23.4694 12.0301 24.5233 13.3182 26.1998 14.1Z" stroke="white" stroke-width="0.3"/>
<path d="M27.1964 11.9652C28.4383 12.5442 29.9144 12.007 30.4935 10.7651C31.0726 9.52329 30.5353 8.04715 29.2935 7.46807C28.0516 6.88899 26.5755 7.42626 25.9964 8.6681C25.4173 9.90994 25.9546 11.3861 27.1964 11.9652Z" fill="#FDAB29"/>
<path d="M27.2494 11.8519C28.4292 12.4021 29.8315 11.8917 30.3816 10.7119C30.9317 9.53217 30.4213 8.12983 29.2416 7.57971C28.0618 7.02958 26.6595 7.53999 26.1094 8.71974C25.5593 9.89948 26.0697 11.3018 27.2494 11.8519Z" stroke="white" stroke-width="0.3"/>
</svg>
