<svg width="50" height="50" viewBox="0 0 50 50" fill="none" xmlns="http://www.w3.org/2000/svg">
<circle cx="25" cy="25" r="25" fill="#FDAB29"/>
<path d="M25.2979 12.6239C27.7457 12.6237 30.1386 13.3494 32.174 14.7091C34.2093 16.0689 35.7958 18.0017 36.7327 20.2631C37.6695 22.5245 37.9148 25.013 37.4374 27.4138C36.96 29.8146 35.7813 32.0199 34.0506 33.7508C32.3198 35.4818 30.1146 36.6606 27.7138 37.1382C25.3131 37.6158 22.8246 37.3708 20.5631 36.4341C18.3016 35.4974 16.3687 33.9111 15.0087 31.8759C13.6488 29.8406 12.9229 27.4478 12.9229 25C12.9272 21.7192 14.2323 18.5739 16.5521 16.2539C18.8719 13.9339 22.0171 12.6285 25.2979 12.6239M25.2979 8.5C22.0346 8.50043 18.8447 9.4685 16.1316 11.2818C13.4185 13.0951 11.3039 15.6722 10.0554 18.6872C8.80691 21.7022 8.48046 25.0198 9.11736 28.2203C9.75426 31.4209 11.3259 34.3607 13.6336 36.668C15.9412 38.9754 18.8812 40.5466 22.0819 41.1831C25.2825 41.8196 28.6 41.4927 31.6148 40.2438C34.6297 38.9949 37.2065 36.88 39.0194 34.1667C40.8324 31.4533 41.8 28.2633 41.8 25C41.8002 22.833 41.3734 20.6871 40.5441 18.6851C39.7149 16.683 38.4993 14.8639 36.9669 13.3317C35.4344 11.7994 33.6152 10.5841 31.613 9.75508C29.6108 8.92606 27.4649 8.49958 25.2979 8.5" fill="white"/>
<path d="M24.8838 19.4409V26.7749C24.8838 27.0133 24.7891 27.2419 24.6206 27.4104C24.4521 27.579 24.2235 27.6736 23.9851 27.6736C23.7468 27.6736 23.5182 27.579 23.3497 27.4104C23.1811 27.2419 23.0864 27.0133 23.0864 26.7749V19.4409C23.0864 19.2025 23.1811 18.9739 23.3497 18.8054C23.5182 18.6369 23.7468 18.5422 23.9851 18.5422C24.2235 18.5422 24.4521 18.6369 24.6206 18.8054C24.7891 18.9739 24.8838 19.2025 24.8838 19.4409" fill="white"/>
<path d="M31.3192 27.6744H23.9851C23.7468 27.6744 23.5182 27.5797 23.3497 27.4111C23.1811 27.2426 23.0864 27.014 23.0864 26.7757C23.0864 26.5373 23.1811 26.3087 23.3497 26.1402C23.5182 25.9716 23.7468 25.877 23.9851 25.877H31.3192C31.5575 25.877 31.7861 25.9716 31.9547 26.1402C32.1232 26.3087 32.2179 26.5373 32.2179 26.7757C32.2179 27.014 32.1232 27.2426 31.9547 27.4111C31.7861 27.5797 31.5575 27.6744 31.3192 27.6744" fill="white"/>
</svg>
