<svg width="50" height="50" viewBox="0 0 50 50" fill="none" xmlns="http://www.w3.org/2000/svg">
<circle cx="25" cy="25" r="25" fill="#FDAB29"/>
<path d="M21.5035 14.6825C23.3493 14.6825 24.8453 13.1865 24.8453 11.3418C24.8453 9.4954 23.3493 8 21.5035 8C19.6582 8 18.1622 9.4954 18.1622 11.3418C18.1622 13.1865 19.6582 14.6825 21.5035 14.6825Z" fill="white"/>
<path d="M38.5565 27.4914C38.4957 27.0867 38.1182 26.8082 37.7123 26.8684L36.001 27.1256L35.8541 26.1523C35.7934 25.7564 35.4253 25.4851 35.0301 25.5435L34.81 25.5766C34.7953 25.4597 34.7699 25.3435 34.721 25.2303L33.1324 21.5581C32.7429 20.6874 31.6717 19.5672 30.8399 19.1006C30.8399 19.1006 25.9396 16.0944 25.539 15.9481C25.3072 15.8644 25.0599 15.8266 24.8087 15.8189L22.3587 20.7181L19.3875 16.7326C19.2016 16.8541 19.04 16.9827 18.9279 17.1196L14.5249 22.3604L10.9005 23.6965C10.2138 23.9495 9.84507 24.6952 10.0622 25.3943L10.0793 25.448C10.2922 26.1352 11.2019 26.4744 11.9027 26.3127L14.6552 25.6981C15.392 25.5282 16.0916 25.2244 16.7181 24.802L19.0612 22.7934L19.647 27.7309C19.7002 28.1356 19.7166 28.2305 19.5137 28.585L17.8206 31.3158C17.1676 32.3699 16.6916 33.5244 16.4113 34.7331L15.1613 40.1172C15.0097 40.9826 15.5866 41.8078 16.4514 41.9642L16.5116 41.9748C17.3304 42.1217 18.125 41.6174 18.3386 40.8139L20.2947 35.0286L23.2862 30.8043L25.7709 34.962C25.9254 35.2693 26.1289 35.5484 26.375 35.7884L30.9963 40.3066C31.5791 40.8765 32.5017 40.9018 33.1146 40.365L33.1884 40.3007C33.5022 40.0258 33.6928 39.6365 33.7181 39.22C33.7429 38.8036 33.6001 38.3941 33.3211 38.085L29.4188 33.7386L27.2993 27.5256L26.8781 21.137L29.6814 22.3309L32.2227 26.1229C32.0688 26.2792 31.9785 26.4945 32.0133 26.7287L32.1602 27.7038L30.4482 27.9609C30.0423 28.0212 29.7639 28.3992 29.8253 28.8051L30.5279 33.4825C30.5893 33.8872 30.9668 34.1667 31.3721 34.1054L38.6368 33.014C39.0427 32.9521 39.3211 32.574 39.2603 32.1692L38.5565 27.4914ZM22.1759 22.9361C22.1759 22.673 22.3888 22.46 22.6514 22.46C22.9145 22.46 23.1275 22.6729 23.1275 22.9361C23.1275 23.1992 22.9145 23.4122 22.6514 23.4122C22.3888 23.4122 22.1759 23.1992 22.1759 22.9361ZM22.8608 26.2419C22.5983 26.2419 22.3848 26.0284 22.3848 25.7653C22.3848 25.5028 22.5983 25.2899 22.8608 25.2899C23.1239 25.2899 23.3369 25.5028 23.3369 25.7653C23.3369 26.0284 23.1239 26.2419 22.8608 26.2419ZM32.7218 26.7516C33.0875 27.0407 33.5925 27.1174 34.0367 26.9156L34.0756 26.899C34.3546 26.7728 34.5617 26.5558 34.6885 26.3009L35.1339 26.2337L35.1645 26.2561L35.3108 27.2295L32.8497 27.5999L32.7218 26.7516Z" fill="white"/>
<path d="M21.2303 18.0901L22.1913 19.379L22.8667 18.0281L22.5989 15.905C22.0031 15.9593 21.4651 16.0501 20.9879 16.1687L21.2303 18.0901Z" fill="white"/>
</svg>
