<svg width="50" height="50" viewBox="0 0 50 50" fill="none" xmlns="http://www.w3.org/2000/svg">
<circle cx="25" cy="25" r="25" fill="#FDAB29"/>
<path d="M41.1425 22.3556L37.3247 22.1792C37.154 22.1715 36.9891 22.1154 36.8493 22.0173C36.7094 21.9193 36.6004 21.7833 36.5351 21.6255L35.7483 19.7355C35.6833 19.5773 35.6647 19.4039 35.6944 19.2355C35.7241 19.0671 35.8011 18.9106 35.9163 18.7842L38.4916 15.959C38.647 15.7876 38.7307 15.563 38.7253 15.3317C38.72 15.1003 38.6261 14.8799 38.4629 14.7158L35.2884 11.5371C35.1244 11.3734 34.9037 11.2791 34.672 11.2739C34.4404 11.2687 34.2157 11.3529 34.0445 11.5091L31.2172 14.0844C31.0908 14.1998 30.934 14.2768 30.7654 14.3063C30.5968 14.3358 30.4233 14.3166 30.2652 14.251L28.3752 13.4656C28.2174 13.4005 28.0815 13.2914 27.9839 13.1513C27.8859 13.0112 27.8298 12.8461 27.8222 12.6753L27.6472 8.8582C27.6362 8.62686 27.5366 8.40864 27.369 8.24884C27.2013 8.08903 26.9786 7.99992 26.747 8H22.26C22.0284 8.00011 21.8058 8.0894 21.6383 8.24933C21.4708 8.40927 21.3713 8.62757 21.3605 8.8589L21.1848 12.6753C21.1777 12.8461 21.1218 13.0112 21.0238 13.1513C20.9258 13.2913 20.7898 13.4004 20.6318 13.4656L18.7418 14.251C18.5837 14.3166 18.4101 14.3358 18.2415 14.3063C18.0729 14.2768 17.9162 14.1998 17.7898 14.0844L14.959 11.5098C14.7878 11.3536 14.5631 11.2694 14.3315 11.2746C14.0998 11.2798 13.8791 11.3741 13.7151 11.5378L10.5413 14.713C10.3774 14.8767 10.2829 15.0973 10.2775 15.3288C10.2722 15.5604 10.3564 15.7852 10.5126 15.9562L13.09 18.78C13.2052 18.9064 13.2819 19.0631 13.3112 19.2316C13.3405 19.4001 13.321 19.5734 13.2552 19.7313L12.4712 21.6213C12.4059 21.7793 12.2968 21.9153 12.1568 22.0134C12.0168 22.1115 11.8517 22.1676 11.6809 22.175L7.8645 22.3514C7.63144 22.3608 7.41114 22.4603 7.2499 22.6288C7.08867 22.7974 6.99909 23.0219 7.00001 23.2551V27.7463C7.00029 27.9778 7.08964 28.2002 7.24956 28.3676C7.40948 28.5349 7.62768 28.6343 7.8589 28.6451L11.6753 28.8215C11.8461 28.8289 12.0112 28.885 12.1512 28.9831C12.2912 29.0812 12.4003 29.2172 12.4656 29.3752L13.2496 31.2652C13.3171 31.4229 13.338 31.5967 13.3097 31.766C13.2814 31.9352 13.2052 32.0928 13.09 32.22L10.5126 35.0438C10.3565 35.2149 10.2722 35.4396 10.2773 35.6712C10.2824 35.9028 10.3764 36.1236 10.5399 36.2877L13.72 39.4629C13.8838 39.6265 14.1044 39.7208 14.3359 39.7261C14.5673 39.7315 14.792 39.6475 14.9632 39.4916L17.787 36.9163C17.9134 36.8009 18.0701 36.7239 18.2388 36.6944C18.4074 36.6649 18.5809 36.6841 18.739 36.7497L20.629 37.5344C20.7869 37.5999 20.9229 37.7091 21.0209 37.8492C21.1189 37.9894 21.1748 38.1546 21.182 38.3254L21.3577 42.1418C21.369 42.3734 21.4691 42.5917 21.6371 42.7515C21.8051 42.9113 22.0281 43.0003 22.26 43H26.7519C26.9833 42.9999 27.2058 42.9105 27.3731 42.7506C27.5404 42.5906 27.6396 42.3723 27.65 42.1411L27.8271 38.3247C27.8347 38.154 27.8907 37.9889 27.9886 37.8488C28.0866 37.7087 28.2224 37.5994 28.3801 37.5337L30.2701 36.749C30.4282 36.6834 30.6017 36.6642 30.7703 36.6937C30.939 36.7232 31.0957 36.8002 31.2221 36.9156L34.0459 39.4909C34.2172 39.6468 34.442 39.7309 34.6736 39.7255C34.9052 39.7202 35.1259 39.6259 35.2898 39.4622L38.4643 36.287C38.6275 36.1228 38.7215 35.9022 38.7268 35.6708C38.7322 35.4393 38.6484 35.2146 38.493 35.0431L35.9191 32.2193C35.8034 32.0932 35.7262 31.9367 35.6964 31.7681C35.6666 31.5996 35.6856 31.4261 35.7511 31.268L36.5379 29.378C36.6032 29.2202 36.7122 29.0843 36.8521 28.9862C36.9919 28.8881 37.1569 28.8319 37.3275 28.8243L41.1453 28.6479C41.3765 28.6364 41.5943 28.5362 41.7535 28.3681C41.9127 28.2 42.001 27.9771 42 27.7456V23.2544C42.0003 23.0235 41.9117 22.8013 41.7525 22.6339C41.5934 22.4666 41.3759 22.3669 41.1453 22.3556H41.1425ZM24.5 31.2162C23.1773 31.2165 21.8955 30.7582 20.8729 29.9193C19.8503 29.0805 19.1502 27.913 18.8919 26.6158C18.6336 25.3186 18.833 23.972 19.4563 22.8054C20.0795 21.6388 21.088 20.7244 22.3099 20.218C23.5318 19.7116 24.8914 19.6446 26.1572 20.0283C27.423 20.412 28.5165 21.2227 29.2515 22.3223C29.9866 23.4219 30.3176 24.7424 30.1881 26.0587C30.0587 27.375 29.4769 28.6057 28.5418 29.5411C27.4698 30.6132 26.0161 31.2157 24.5 31.2162Z" fill="white"/>
</svg>
