<svg width="50" height="50" viewBox="0 0 50 50" fill="none" xmlns="http://www.w3.org/2000/svg">
<circle cx="25" cy="25" r="25" fill="#52B788"/>
<path d="M40.2217 22.1251L36.7312 21.9638C36.5745 21.9564 36.4232 21.9043 36.2953 21.8135C36.1673 21.7228 36.0681 21.5973 36.0093 21.4518L35.2899 19.7264C35.2305 19.5819 35.2134 19.4234 35.2406 19.2696C35.2678 19.1157 35.3382 18.9727 35.4435 18.8573L37.8 16.2742C37.9423 16.1176 38.0189 15.9121 38.0139 15.7005C38.0089 15.4889 37.9226 15.2874 37.7731 15.1376L34.8688 12.2346C34.7188 12.0848 34.5169 11.9986 34.3049 11.9938C34.093 11.9891 33.8874 12.0661 33.7309 12.209L31.144 14.5629C31.0284 14.6684 30.8851 14.7388 30.731 14.7658C30.5768 14.7927 30.4181 14.7752 30.2736 14.7152L28.5481 13.992C28.4025 13.9331 28.2769 13.8337 28.1861 13.7055C28.0954 13.5773 28.0433 13.4257 28.0361 13.2688L27.88 9.78464C27.8701 9.57352 27.7794 9.37429 27.6267 9.22821C27.4739 9.08214 27.2709 9.00043 27.0595 9H22.952C22.7405 9.00041 22.5373 9.08208 22.3843 9.22813C22.2314 9.37417 22.1404 9.57341 22.1302 9.78464L21.969 13.2752C21.9618 13.4321 21.9097 13.5837 21.819 13.7119C21.7282 13.8401 21.6026 13.9395 21.457 13.9984L19.7264 14.7165C19.5819 14.7766 19.4232 14.7942 19.269 14.7673C19.1148 14.7403 18.9715 14.6698 18.856 14.5642L16.2794 12.209C16.1228 12.0661 15.9172 11.9891 15.7053 11.9938C15.4934 11.9986 15.2914 12.0848 15.1414 12.2346L12.241 15.1376C12.0911 15.2872 12.0047 15.4888 11.9997 15.7005C11.9947 15.9122 12.0715 16.1177 12.2141 16.2742L14.568 18.856C14.6733 18.9714 14.7435 19.1146 14.7703 19.2685C14.797 19.4225 14.7792 19.5809 14.719 19.7251L14.0022 21.4557C13.9432 21.6012 13.8437 21.7268 13.7156 21.8175C13.5874 21.9082 13.4359 21.9604 13.279 21.9677L9.78976 22.129C9.5773 22.1376 9.3764 22.2281 9.22918 22.3815C9.08196 22.5349 8.99983 22.7394 9 22.952V27.048C9.0001 27.2596 9.08167 27.463 9.22777 27.616C9.37388 27.769 9.5733 27.8599 9.78464 27.8698L13.2739 28.031C13.4308 28.0384 13.5823 28.0905 13.7104 28.1812C13.8386 28.272 13.9381 28.3975 13.9971 28.543L14.7139 30.2736C14.7741 30.4178 14.7919 30.5762 14.7651 30.7302C14.7384 30.8842 14.6682 31.0273 14.5629 31.1427L12.2141 33.7258C12.0712 33.8823 11.9942 34.0879 11.999 34.2998C12.0037 34.5118 12.0899 34.7137 12.2397 34.8637L15.144 37.7654C15.2936 37.9153 15.4952 38.0017 15.7069 38.0067C15.9186 38.0117 16.1241 37.9349 16.2806 37.7923L18.856 35.4371C18.9716 35.3316 19.1149 35.2612 19.269 35.2342C19.4232 35.2073 19.5818 35.2248 19.7264 35.2848L21.457 36.0016C21.6025 36.0606 21.728 36.1601 21.8188 36.2883C21.9095 36.4164 21.9616 36.5679 21.969 36.7248L22.1302 40.2141C22.1401 40.4255 22.2309 40.6251 22.3839 40.7714C22.5369 40.9177 22.7403 40.9996 22.952 41H27.0582C27.2698 40.9999 27.4732 40.9183 27.6262 40.7722C27.7792 40.6261 27.8701 40.4267 27.88 40.2154L28.0413 36.7261C28.0486 36.5692 28.1007 36.4177 28.1914 36.2896C28.2822 36.1614 28.4077 36.0619 28.5533 36.0029L30.2838 35.2861C30.4284 35.2262 30.587 35.2088 30.7412 35.2358C30.8953 35.2627 31.0386 35.333 31.1542 35.4384L33.736 37.7936C33.8929 37.936 34.0985 38.0126 34.3103 38.0076C34.5221 38.0026 34.7239 37.9164 34.8739 37.7667L37.7757 34.8637C37.925 34.7135 38.0111 34.5118 38.0161 34.3001C38.0211 34.0884 37.9446 33.8828 37.8025 33.7258L35.4435 31.144C35.3379 31.0287 35.2673 30.8858 35.2401 30.7318C35.2129 30.5779 35.2302 30.4194 35.2899 30.2749L36.0093 28.5443C36.0681 28.3989 36.1673 28.2734 36.2953 28.1826C36.4232 28.0919 36.5745 28.0397 36.7312 28.0323L40.2217 27.871C40.4322 27.8596 40.6302 27.7678 40.775 27.6147C40.9198 27.4616 41.0003 27.2587 41 27.048V22.952C41.0016 22.7405 40.9216 22.5365 40.7766 22.3825C40.6317 22.2285 40.4329 22.1363 40.2217 22.1251V22.1251ZM25 30.2262C23.9666 30.2252 22.9566 29.9179 22.0978 29.343C21.2391 28.7681 20.57 27.9515 20.1752 26.9964C19.7805 26.0414 19.6777 24.9907 19.8799 23.9773C20.0822 22.9638 20.5803 22.0331 21.3114 21.3027C22.0425 20.5723 22.9738 20.0751 23.9874 19.8738C25.0011 19.6726 26.0516 19.7764 27.0063 20.1721C27.961 20.5678 28.7769 21.2377 29.3509 22.097C29.925 22.9563 30.2313 23.9666 30.2313 25C30.2312 25.6867 30.0957 26.3666 29.8327 27.001C29.5697 27.6353 29.1842 28.2116 28.6984 28.6969C28.2126 29.1823 27.6359 29.5671 27.0014 29.8295C26.3668 30.0919 25.6867 30.2267 25 30.2262Z" fill="white"/>
</svg>
