<svg width="90" height="90" viewBox="0 0 90 90" fill="none" xmlns="http://www.w3.org/2000/svg">
<circle cx="45" cy="45" r="45" fill="white"/>
<path d="M44.9954 18.7477C50.1877 18.7473 55.2636 20.2865 59.581 23.1709C63.8985 26.0553 67.2637 30.1552 69.251 34.9521C71.2383 39.749 71.7585 45.0276 70.7458 50.1202C69.7332 55.2127 67.233 59.8907 63.5617 63.5623C59.8903 67.234 55.2126 69.7345 50.1201 70.7477C45.0276 71.7608 39.749 71.2411 34.9519 69.2542C30.1548 67.2672 26.0546 63.9024 23.1699 59.5852C20.2852 55.268 18.7454 50.1923 18.7454 45C18.7545 38.0406 21.523 31.3689 26.4438 26.4477C31.3646 21.5264 38.0361 18.7574 44.9954 18.7477ZM44.9954 10C38.0733 10.0009 31.3068 12.0544 25.5517 15.9008C19.7966 19.7472 15.3113 25.2138 12.6629 31.6092C10.0146 38.0047 9.32209 45.0419 10.6731 51.831C12.0241 58.62 15.3579 64.856 20.2529 69.7503C25.1479 74.6447 31.3843 77.9777 38.1735 79.3278C44.9627 80.6779 51.9998 79.9845 58.395 77.3353C64.7901 74.6861 70.2561 70.2001 74.1018 64.4445C77.9474 58.6889 80 51.9221 80 45C80.0003 40.4033 79.095 35.8515 77.336 31.6047C75.5769 27.3578 72.9984 23.4991 69.7478 20.249C66.4972 16.9988 62.6382 14.4208 58.3911 12.6623C54.1441 10.9038 49.5922 9.9991 44.9954 10Z" fill="#FDAB29"/>
<path d="M46.8752 30.024V45.5811C46.8752 46.0867 46.6743 46.5716 46.3168 46.9291C45.9593 47.2866 45.4744 47.4874 44.9688 47.4874C44.4633 47.4874 43.9784 47.2866 43.6209 46.9291C43.2634 46.5716 43.0625 46.0867 43.0625 45.5811V30.024C43.0625 29.5184 43.2634 29.0336 43.6209 28.676C43.9784 28.3185 44.4633 28.1177 44.9688 28.1177C45.4744 28.1177 45.9593 28.3185 46.3168 28.676C46.6743 29.0336 46.8752 29.5184 46.8752 30.024Z" fill="#FDAB29"/>
<path d="M60.5259 47.489H44.9688C44.4633 47.489 43.9784 47.2881 43.6209 46.9306C43.2634 46.5731 43.0625 46.0882 43.0625 45.5826C43.0625 45.077 43.2634 44.5921 43.6209 44.2346C43.9784 43.8771 44.4633 43.6763 44.9688 43.6763H60.5259C61.0315 43.6763 61.5164 43.8771 61.8739 44.2346C62.2314 44.5921 62.4323 45.077 62.4323 45.5826C62.4323 46.0882 62.2314 46.5731 61.8739 46.9306C61.5164 47.2881 61.0315 47.489 60.5259 47.489Z" fill="#FDAB29"/>
</svg>
