<svg width="21" height="21" viewBox="0 0 21 21" fill="none" xmlns="http://www.w3.org/2000/svg">
<path d="M10.5002 19.6836C15.572 19.6836 19.6836 15.572 19.6836 10.5002C19.6836 5.42841 15.572 1.31689 10.5002 1.31689C5.42841 1.31689 1.31689 5.42841 1.31689 10.5002C1.31689 15.572 5.42841 19.6836 10.5002 19.6836Z" stroke="white" stroke-width="2"/>
<path d="M9.11347 7.52345V6.98513C9.11368 6.92385 9.10181 6.86312 9.07855 6.80643C9.05528 6.74973 9.02107 6.69819 8.97787 6.65472C8.93467 6.61126 8.88333 6.57673 8.82678 6.55312C8.77023 6.5295 8.70957 6.51726 8.64829 6.51709H5.42495C5.36369 6.51705 5.30301 6.52909 5.2464 6.55252C5.18979 6.57594 5.13835 6.6103 5.09503 6.65362C5.05171 6.69694 5.01735 6.74839 4.99392 6.805C4.9705 6.86161 4.95845 6.92228 4.9585 6.98355V14.0167C4.95845 14.078 4.9705 14.1386 4.99392 14.1953C5.01735 14.2519 5.05171 14.3033 5.09503 14.3466C5.13835 14.3899 5.18979 14.4243 5.2464 14.4477C5.30301 14.4712 5.36369 14.4832 5.42495 14.4832H15.5754C15.6366 14.4832 15.6973 14.4712 15.7539 14.4477C15.8105 14.4243 15.862 14.3899 15.9053 14.3466C15.9486 14.3033 15.983 14.2519 16.0064 14.1953C16.0298 14.1386 16.0419 14.078 16.0418 14.0167V8.7154C16.0419 8.65413 16.0298 8.59346 16.0064 8.53684C15.983 8.48023 15.9486 8.42879 15.9053 8.38547C15.862 8.34215 15.8105 8.30779 15.7539 8.28437C15.6973 8.26094 15.6366 8.2489 15.5754 8.24894H9.84023C9.74485 8.24922 9.65035 8.23061 9.5622 8.19416C9.47395 8.15735 9.3938 8.10355 9.32629 8.03583C9.25884 7.96844 9.20532 7.88842 9.16881 7.80034C9.13229 7.71226 9.11349 7.61785 9.11347 7.5225V7.52345Z" fill="white"/>
<path d="M8.10829 13.642H6.13799C6.0913 13.642 6.0465 13.6235 6.01348 13.5904C5.98046 13.5574 5.96192 13.5126 5.96192 13.4659V11.7005C5.96177 11.6698 5.96976 11.6395 5.98505 11.6128C6.00034 11.5861 6.0224 11.564 6.04901 11.5485C6.07558 11.533 6.10573 11.5247 6.1365 11.5244C6.16727 11.5241 6.1976 11.5319 6.22445 11.5469L8.19474 13.3124C8.22874 13.3314 8.25546 13.3612 8.2707 13.3971C8.28594 13.433 8.28884 13.4729 8.27895 13.5106C8.26906 13.5483 8.24695 13.5817 8.21606 13.6054C8.18517 13.6292 8.14727 13.6421 8.10829 13.642Z" fill="#FFB13B"/>
</svg>
